<?xml version="1.0" encoding="utf-8"?>
<!-- Generator: Adobe Illustrator 24.1.1, SVG Export Plug-In . SVG Version: 6.00 Build 0)  -->
<svg version="1.1" id="Layer_1" xmlns="http://www.w3.org/2000/svg" xmlns:xlink="http://www.w3.org/1999/xlink" x="0px" y="0px"
	 viewBox="0 0 1481.6 564" style="enable-background:new 0 0 1481.6 564;" xml:space="preserve">
<style type="text/css">
	.st0{fill:#595959;}
	.st1{fill:#FFFFFF;}
</style>
<path class="st0" d="M735.3,515.8c217.7,0,435.3,0.1,653-0.1c32.3,0,53.1-25.9,53.2-52.9c0.1-123.9,0.1-247.9,0.1-371.8
	c0-30.8-23.9-54.7-54.7-54.7c-434.3,0-868.6,0-1302.9,0c-30,0-54.3,24.2-54.3,54.2c0,123.9,0,247.9,0,371.8
	c0,29.1,24.4,53.5,53.4,53.5C300.3,515.8,517.8,515.8,735.3,515.8z"/>
<path class="st1" d="M76.4,22.6c439.4,0,878.7,0,1318.1,0c2.3,0.7,4.6,1.5,7,2c30.7,6.3,53.1,33.7,53.1,64.9
	c0,124.6,0.1,249.2-0.2,373.8c0,7-1.5,14.2-3.6,20.9c-8.9,28.5-37.1,45.1-63.5,45c-435.3-0.1-870.7-0.1-1306-0.1
	c-2.3,0-4.7,0.1-7-0.2c-28.9-4.1-51.8-26.2-57.2-55c-0.6-3.4-1.2-6.8-1.8-10.1c0-15.3,0-30.6,0-45.9c0.3-2.1,0.8-4.2,0.8-6.2
	c0-107.2,0-214.4,0-321.6c0-30.5,20.6-57,50.2-64.7C69.8,24.5,73.1,23.5,76.4,22.6z M735.3,515.8c217.7,0,435.3,0.1,653-0.1
	c32.3,0,53.1-25.9,53.2-52.9c0.1-123.9,0.1-247.9,0.1-371.8c0-30.8-23.9-54.7-54.7-54.7c-434.3,0-868.6,0-1302.9,0
	c-30,0-54.3,24.2-54.3,54.2c0,123.9,0,247.9,0,371.8c0,29.1,24.4,53.5,53.4,53.5C300.3,515.8,517.8,515.8,735.3,515.8z"/>
<path class="st1" d="M415.9,212.7c-56.6,31.6-51.6,117.3,10.1,144c-4.9,11-9.4,22.2-14.9,32.9c-9,17.7-20.5,33.9-34.5,48
	c-13.9,14-30.3,18.7-49.3,12.4c-6.3-2.1-12.5-4.4-18.8-6.8c-16.6-6.3-33.2-6.2-49.8-0.2c-4.7,1.7-9.4,3.5-14,5.2
	c-23.8,9-39.8,5.4-57.1-13.5c-32.5-35.7-52.2-77.5-58.4-125.4c-3.1-23.8-2.5-47.6,6.3-70.3c12.2-31.7,34.1-53,68.1-60.4
	c14.3-3.1,28.1-1.1,41.7,3.8c8,2.8,16.1,5.4,23.9,8.5c6.4,2.5,12.5,2.2,18.9-0.1c13-4.6,26-9.5,39.3-12.7
	C360.3,170.4,396.3,184.8,415.9,212.7z"/>
<path class="st1" d="M652.5,301.6c4,0,8.3-0.2,12.5,0.1c1,0.1,2.5,2,2.6,3.2c0.3,3.6,0.1,7.2,0.1,12c1.5-1.3,2.2-1.7,2.6-2.2
	c19-23.6,54.4-19.6,66.9,7.9c7.6,16.8,7.3,34,0.2,50.8c-12.1,28.6-50.3,32.7-67.2,11.4c0,16.8,0,32.9,0,49.8c-6,0-11.5,0-17.7,0
	C652.5,390.4,652.5,346.3,652.5,301.6z M670,350.6c0,2.7-0.2,6.2,0,9.6c0.8,11,8.5,20.2,19,23.1c11,3.1,22.3-0.7,28.9-9.6
	c9.6-13.1,9.4-37-0.3-49.8c-9.3-12.4-26.8-13.8-38.2-3.3C670.8,328.6,669.1,338.8,670,350.6z"/>
<path class="st1" d="M781.1,386c0,15.8,0,32,0,48.6c-5.8,0-11.2,0-17.1,0c0-44.2,0-88.2,0-132.6c4.6,0,9.4,0,14.6,0
	c0.3,4.7,0.7,9.2,1,14.1c0.9-0.5,1.4-0.6,1.7-0.9c10.9-14,25.4-18.5,42.2-14.2c17.7,4.5,26.1,17.9,29.3,34.9
	c2.7,14.4,1.2,28.5-6,41.5c-9.7,17.5-31.1,25.6-49.8,18.4C791.4,393.6,786.7,389.5,781.1,386z M780.8,349.2c0.3,4.7,0.4,8.9,0.9,13
	c1.5,10.8,9.2,19.1,19.5,21.5c11.7,2.7,22.4-1,28.4-10.7c8.6-13.9,9-28.6,2.6-43.4c-5-11.5-15.5-17.3-27.2-15.7
	c-11.3,1.5-21.1,10.9-23,22.5C781.2,340.7,781.1,345.3,780.8,349.2z"/>
<path class="st1" d="M634.3,396c-5.8,0-10.9,0.3-16-0.2c-1.3-0.1-3.1-2.1-3.6-3.6c-4-11.1-7.6-22.3-11.6-33.4
	c-0.5-1.5-2.3-3.6-3.6-3.6c-14.6-0.3-29.3-0.2-44.1-0.2c-4.1,12.3-8.3,24.4-12.1,36.6c-1.1,3.5-2.7,4.7-6.3,4.4
	c-4.1-0.3-8.3-0.1-13.2-0.1c2.7-8.1,5.3-15.8,7.9-23.4c11.8-34.5,23.6-69.1,35.2-103.7c1.2-3.6,2.7-5.1,6.6-4.8
	c5.1,0.4,11.5-1.5,15.1,0.9c3.5,2.4,4.2,8.9,5.9,13.7c12.8,37.3,25.6,74.7,38.4,112C633.3,392.3,633.6,393.7,634.3,396z
	 M578.4,282.4c-6.4,19.7-12.7,39-19,58.5c13.1,0,25.6,0,38.4,0C591.3,321.1,584.9,301.8,578.4,282.4z"/>
<path class="st1" d="M910.5,390.3c1.6-5.1,2.9-9.7,4.2-13.7c8.2,2.4,16,5.1,24,6.8c7.2,1.5,14.6,0.8,21.5-2.2
	c14.7-6.4,17.9-25.6,5.4-35.6c-5-4-11.1-6.5-16.9-9.4c-6.3-3.3-13.1-5.8-19.2-9.5c-12.2-7.5-17.7-18.6-15.8-33
	c1.9-14.1,10.4-23,23.3-27.9c14.7-5.6,35.7-4,48.5,3.5c-1.4,4.2-2.8,8.5-4.4,13.1c-5.8-1.6-11.1-3.3-16.5-4.5
	c-7.1-1.6-14.2-1.4-21.1,1.3c-14.4,5.6-17.4,22.9-5.2,32.4c4.7,3.6,10.3,6,15.6,8.7c7.2,3.7,15.1,6.5,21.7,11
	c21.8,14.9,20.5,47.8-2.6,60.4C952.4,402.7,931.5,399.7,910.5,390.3z"/>
<path class="st1" d="M1162.8,349.8c-0.7,37.8-37.5,60.4-70.3,42.9c-17.8-9.5-23.3-26.1-23.2-44.9c0.1-22.1,12.7-40,31.3-45.7
	C1134.7,291.6,1163.5,313.6,1162.8,349.8z M1144.7,348.5c-0.3-8.1-1.9-16.5-6.9-24c-10.3-15.3-31.8-15.9-42.9-1.2
	c-10.1,13.3-10.2,36.8-0.4,50.3c11.6,15.9,33.5,15.1,43.9-1.7C1142.7,365,1144.6,357.3,1144.7,348.5z"/>
<path class="st1" d="M1256.2,352.1c-2.1,17.7,11.7,32.6,30.3,32.4c9.2-0.1,18.3-2,28.3-3.3c-0.8-0.8-0.6-0.7-0.5-0.6
	c3.8,13.6,5.2,11.9-8.3,15.3c-10.6,2.7-21.3,3.1-32.1,1c-17.4-3.4-28.6-13.7-33-30.7c-5.4-20.8-2.1-40,13.4-55.8
	c11.7-11.8,33.2-14.7,47.8-6.9c13.3,7.1,18.3,19.6,20.2,33.6c0.5,3.4,0,7,0.2,10.5c0.2,3.6-1.4,4.5-4.7,4.4
	c-18.6-0.1-37.3-0.1-55.9-0.1C1260.2,352.1,1258.3,352.1,1256.2,352.1z M1256.5,339c16.6,0,32.8,0,49,0c0.2-15.5-9.3-26.7-22.4-27.1
	C1269.1,311.6,1256.9,323.9,1256.5,339z"/>
<path class="st1" d="M275.1,173c0.5-6.8,0.4-13.4,1.5-19.8c5.9-32.1,35.2-59.8,67.6-64.4c3.8-0.6,5.5,0.5,5.5,4.6
	c-0.3,33.7-15.6,58.3-44.8,74.5C296.3,172.8,286.5,173.9,275.1,173z"/>
<path class="st1" d="M1033.8,301.2c8.2,0,15.9,0,24,0c0,4.7,0,8.9,0,13.7c-8,0-15.7,0-24.1,0c0,13.5-0.1,26.4,0,39.3
	c0.1,6,0,12,0.8,17.9c1.3,9.4,4.6,11.8,14.1,11.6c2.5,0,4.9-0.2,7.8-0.4c0.3,3.6,0.9,7,0.9,10.5c0,1-1.5,2.8-2.4,2.9
	c-6.7,0.5-13.7,1.7-20.2,0.6c-11.8-2-17.8-11.6-18-26.9c-0.2-16.5,0-32.9,0-49.4c0-1.8,0-3.6,0-5.9c-4.8,0-9.3,0-14.1,0
	c0-4.6,0-8.6,0-13.6c2.7,0,5.5-0.3,8.2,0.1c5,0.6,6.4-1.5,6-6.2c-0.4-4.1,0.1-8.3-0.2-12.5c-0.2-3.3,1-4.7,4.2-5.3
	c4.2-0.8,8.3-2.1,12.9-3.3C1033.8,283.6,1033.8,292.2,1033.8,301.2z"/>
<path class="st1" d="M509.3,219.1c0-2.4,0-4.2,0-6c0-22.6,0-45.3,0-67.9c0-7.5,0-7.7,7.6-8.5c11.3-1.2,22.6-1.6,33.7,1.5
	c16,4.4,26.3,17.4,26.4,34c0,5.8-0.1,11.7-1.4,17.3c-4.2,17.6-16.3,27.2-33.7,29.3C531.4,220.1,520.7,219.1,509.3,219.1z M520.3,210
	c19.9,3.9,43.3-1.5,45.6-30.5c1.4-18.1-8.1-31.6-24.8-33.9c-5.5-0.8-11.2-0.2-16.8-0.3c-3.4-0.1-4,1.6-4,4.7c0.1,18.4,0,36.9,0,55.3
	C520.3,206.8,520.3,208.4,520.3,210z"/>
<path class="st1" d="M1184,301.9c4.5,0,9.1,0,14.3,0c0.2,5.5,0.5,10.8,0.7,15.7c4.3-4.6,8.1-9.7,12.9-13.6
	c5.2-4.2,11.7-5.2,18.6-3.8c0,5.3,0,10.4,0,15.9c-0.7,0-1.3,0.2-1.9,0.1c-17.4-1.8-26.3,12.2-26.8,23.9c-0.7,16.1-0.4,32.2-0.6,48.3
	c0,2.3,0,4.6,0,7.3c-5.8,0-11.2,0-17.2,0C1184,364.5,1184,333.3,1184,301.9z"/>
<path class="st1" d="M644.8,160.5c4.1,0,7.5,0,11.4,0c3.9,15.1,7.9,30.2,12.2,46.6c4.1-13.1,7.8-24.8,11.5-36.5
	c0.7-2.1,1.5-4.1,1.9-6.2c0.6-3.4,2.3-4.3,5.8-4.4c4.1-0.1,5.7,1.2,6.8,5.1c3.5,12.5,7.5,24.8,11.3,37.2c0.3,0.9,0.7,1.7,1.5,3.9
	c4.5-16.1,8.6-30.9,12.7-45.6c3.8,0,7.2,0,11.1,0c-6.4,19.7-12.7,39.1-18.9,58.3c-10.1,0.9-10.1,0.9-13.1-8.2
	c-3.8-11.8-7.6-23.7-11.4-35.7c-4.9,14.8-9.8,29.2-14.7,43.9c-3.4,0-6.7,0-10.5,0C656.7,199.8,650.8,180.5,644.8,160.5z"/>
<path class="st1" d="M990.6,132.8c3.8,0,7.1,0,10.8,0c0,28.6,0,57.3,0,86.1c-2.8,0-5.5,0-8.9,0c-0.3-2.6-0.7-5.2-1.1-8.7
	c-3.9,5.6-8.8,8.8-14.9,9.9c-15.8,2.9-28.2-7.3-30.3-25.1c-0.9-7.6,0-14.9,3.5-21.8c7.7-15.3,25.8-19.1,39-8.2
	c0.3,0.3,0.8,0.4,1.9,0.9c0-5.8,0-11.2,0-16.6C990.6,143.9,990.6,138.5,990.6,132.8z M990.9,189.8c-0.1,0-0.3,0-0.4,0
	c0-2.3,0.2-4.7,0-7c-0.7-8-5.8-13.7-13.5-15.1c-7-1.3-13.6,2.3-17,9.3c-4.2,8.6-4.1,17.3,0.1,25.9c3,6.1,8.8,9.3,15.4,8.7
	c6.8-0.6,12.5-5,14.1-11.5C990.5,196.8,990.5,193.3,990.9,189.8z"/>
<path class="st1" d="M1290.7,219.1c-3.4,0-6.5,0-10.2,0c-0.2-2.1-0.4-4.2-0.5-6.3c-0.2-10.3,0.1-20.6-0.5-30.9
	c-0.5-9-5.8-14.1-13.1-14c-8.4,0.2-14.9,6.7-15,15.5c-0.2,10.1,0,20.3-0.1,30.4c0,1.6-0.1,3.2-0.2,5.1c-3.4,0-6.5,0-10.4,0
	c0-28.6,0-57.2,0-86.1c3.2,0,6.3,0,10,0c0,11.3,0,22.7,0,35.3c2.3-1.8,3.6-2.9,4.9-4c6.7-5.6,14.3-6.9,22.4-3.8
	c8,3.1,12,9.7,12.4,17.8C1291.1,191.7,1290.7,205.3,1290.7,219.1z"/>
<path class="st1" d="M825.1,189.9c0.2-22.4,19-36.6,39.6-29.5c12.8,4.4,17.9,14.4,18.9,27.2c1.9,23.5-19.7,39.6-41.4,30.8
	C831.3,213.9,825,203.5,825.1,189.9z M835.3,189.8c0.3,0.1,0.7,0.3,1,0.4c0.2,2,0.3,4,0.7,5.9c1.8,9,8.4,15.6,16.1,16
	c8.3,0.5,14.6-4.4,17.7-13.8c2.6-7.8,1.7-15.4-2.2-22.6c-5.8-10.8-21-11.9-27.5-1.5C838.2,178.9,837.2,184.6,835.3,189.8z"/>
<path class="st1" d="M1040.8,190.9c0.4-12.1,3.7-22.7,15-28.6c10.2-5.3,20.7-5,30.5,1c13.2,8,17.1,28.3,8.8,43.2
	c-7.3,13.1-24.7,18.2-38.8,11.3C1045.2,212.2,1041.2,202.5,1040.8,190.9z M1088.7,189.5c-1.7-4.9-2.6-10.3-5.2-14.7
	c-5.7-9.8-19.8-10.2-26.6-1.1c-6.8,9.1-6.7,23.1,0.2,32.1c5.9,7.8,16.5,8.7,23.6,2C1085.9,202.9,1087.7,196.7,1088.7,189.5z"/>
<path class="st1" d="M642.2,188.2c0.1,11.4-2.7,21.5-13,27.9c-9.8,6-20.2,6.3-30.5,1.1c-12.5-6.3-17.9-22.7-13-38.3
	c4.5-14.4,16.9-21.9,32.7-19.7c13.8,1.9,23.2,12.5,23.8,27.1C642.2,186.9,642.2,187.6,642.2,188.2z M632,189.9
	c-1.6-5-2.5-10.3-5-14.9c-5.7-10.3-20.4-10.6-27.1-1c-6.4,9.1-6.2,22.9,0.5,31.8c5.9,7.8,17.2,8.6,24,1.5
	C629,202.7,630.9,196.8,632,189.9z"/>
<path class="st1" d="M1348.4,209.3c0.7,2.6,1.3,4.8,1.8,7c-9.3,6.1-28.4,5.8-37.7-0.7c-9.2-6.4-13.7-20.8-10.6-33.7
	c3.2-13.4,11.4-21.4,23.2-22.9c15.2-1.9,26.4,6.8,28.1,22.1c0.4,3.3,0.1,6.6,0.1,10.6c-13.7,0-27.3,0-40.7,0
	C1310.7,208.4,1324.7,215.2,1348.4,209.3z M1342.6,183.2c-0.1-10.6-5.8-16.7-14.6-16.4c-8.7,0.4-15.7,7.9-15,16.4
	C1322.8,183.2,1332.6,183.2,1342.6,183.2z"/>
<path class="st1" d="M927.2,219c-0.5-2.3-0.9-4.2-1.4-6.6c-5.6,6.2-12.1,8.9-19.9,8.2c-7.7-0.7-13.2-4.2-15.5-11.8
	c-2.3-7.5-0.4-15.8,6.2-20c5-3.2,11.1-4.7,16.9-6.4c3.4-1,7.2-0.9,11.1-1.3c1-4.4,0.2-8.2-3.3-10.8c-8.2-6.2-16.4-2.6-25,0.6
	c-0.8-2.1-1.7-4.2-2.5-6.2c8.2-6.9,25.4-8.4,33.4-2.1c3.5,2.7,7,7.5,7.4,11.6c1.4,14.8,1.5,29.7,2.1,44.8
	C933,219,930.2,219,927.2,219z M925,187.9c-6.8,1.8-13,2.8-18.7,5c-4.5,1.8-6.3,6.2-5.5,11.2c0.7,4.2,3.1,7,7.2,8
	c7.5,1.9,16-3.7,17-11.4C925.4,197.1,925,193.4,925,187.9z"/>
<path class="st1" d="M749.9,219c-4.1,0-7.3,0-10.9,0c0-19.4,0-38.7,0-58.3c2.8,0,5.7,0,8.7,0c0.4,2.3,0.8,4.5,1.3,7.5
	c1.4-1.3,2.4-2.3,3.4-3.2c6.8-6.1,14.6-7.8,23.2-5c8.3,2.8,13,9.1,13.3,17.5c0.6,13.7,0.2,27.4,0.2,41.5c-3.3,0-6.7,0-10.7,0
	c0-9.3,0-18.4,0-27.6c0-3.3,0-6.7-0.3-9.9c-0.9-8.6-6.4-14-13.5-13.7c-7.8,0.3-14.4,6.9-14.5,15c-0.2,10.5,0,20.9,0,31.4
	C749.9,215.8,749.9,217.2,749.9,219z"/>
<path class="st1" d="M1160.2,219.1c-3.6,0-6.7,0-10.5,0c0-3.7,0.1-7.3,0-10.9c-0.2-9.5-0.1-19-1-28.4c-0.6-7-5.1-11-11-11.7
	c-6.4-0.7-12.9,2.9-15.2,9c-1.2,3.2-1.7,6.8-1.7,10.2c-0.2,10.4-0.1,20.9-0.1,31.6c-3.8,0-7.1,0-10.8,0c0-19.4,0-38.6,0-58.2
	c2.9,0,5.8,0,8.9,0c0.3,2.3,0.7,4.6,1.1,7.4c0.9-0.7,1.6-1.2,2.2-1.8c6.9-7.2,15.3-9,24.7-6.1c8.9,2.8,12.7,9.9,13.1,18.2
	C1160.6,191.7,1160.2,205.2,1160.2,219.1z"/>
<path class="st1" d="M1205.8,168.7c-3.2-0.2-5.8-0.3-8.7-0.5c0-2.6,0-5,0-7.8c2.7-0.1,5.3-0.3,8.7-0.5c0-3,0.3-5.9-0.1-8.8
	c-0.6-4.3,1.3-6.1,5.2-6.6c1.8-0.2,3.5-0.7,5.7-1.2c0,5.6,0,10.9,0,16.7c5.1,0,9.9,0,15.1,0c0,3,0,5.5,0,8.5c-3.8,0-7.4,0.2-11-0.1
	c-3.1-0.2-4.1,1.2-4.1,4.1c0.1,9.1-0.1,18.3,0.1,27.4c0.2,9.8,1.9,11.1,13.4,11.5c2.9,6.4,1.9,8.3-4.8,9.1
	c-11.6,1.3-18.2-3.4-19-14.8c-0.8-10.3-0.4-20.6-0.6-30.9C1205.8,172.9,1205.8,170.9,1205.8,168.7z"/>
<path class="st1" d="M803.8,132.8c3.3,0,6.4,0,10,0c0,28.8,0,57.4,0,86.2c-3.4,0-6.5,0-10,0C803.8,190.3,803.8,161.7,803.8,132.8z"
	/>
</svg>
