<?xml version="1.0" encoding="utf-8"?>
<!-- Generator: Adobe Illustrator 25.0.1, SVG Export Plug-In . SVG Version: 6.00 Build 0)  -->
<svg version="1.1" id="Layer_1" xmlns="http://www.w3.org/2000/svg" xmlns:xlink="http://www.w3.org/1999/xlink" x="0px" y="0px"
	 viewBox="0 0 1481.64 564.05" style="enable-background:new 0 0 1481.64 564.05;" xml:space="preserve">
<path d="M76.4,22.57c439.36,0,878.73,0,1318.09,0c2.33,0.67,4.62,1.51,6.99,2c30.74,6.31,53.13,33.65,53.13,64.92
	c0,124.59,0.06,249.18-0.15,373.78c-0.01,6.99-1.48,14.23-3.59,20.94c-8.95,28.46-37.09,45.05-63.49,45.04
	c-435.32-0.13-870.65-0.09-1305.97-0.1c-2.33,0-4.69,0.14-6.98-0.18c-28.88-4.1-51.79-26.17-57.23-55.04
	c-0.63-3.38-1.17-6.77-1.76-10.15c0-15.31,0-30.61,0-45.92c0.28-2.08,0.8-4.16,0.8-6.24c0.04-107.2,0.03-214.4,0.04-321.6
	c0-30.53,20.57-56.98,50.21-64.67C69.81,24.47,73.09,23.49,76.4,22.57z M735.27,515.83c217.66,0,435.31,0.08,652.97-0.09
	c32.29-0.03,53.13-25.86,53.16-52.85c0.14-123.92,0.06-247.85,0.06-371.77c0-30.81-23.92-54.74-54.74-54.74
	c-434.31,0-868.62,0-1302.93,0c-30.03,0-54.33,24.17-54.34,54.21c-0.03,123.92-0.02,247.85,0,371.77
	c0,29.11,24.37,53.47,53.37,53.47C300.3,515.83,517.79,515.83,735.27,515.83z"/>
<path d="M415.94,212.74C359.32,244.36,364.29,330,426,356.73c-4.92,10.99-9.38,22.22-14.86,32.93
	c-9.05,17.71-20.48,33.87-34.51,48.03c-13.85,13.97-30.29,18.7-49.33,12.44c-6.31-2.07-12.54-4.4-18.75-6.76
	c-16.58-6.28-33.17-6.18-49.78-0.21c-4.69,1.69-9.35,3.47-14.02,5.22c-23.81,8.96-39.85,5.43-57.09-13.51
	c-32.5-35.69-52.16-77.53-58.39-125.41c-3.1-23.81-2.48-47.57,6.28-70.31c12.22-31.72,34.05-53.03,68.09-60.42
	c14.29-3.1,28.11-1.06,41.68,3.76c7.98,2.83,16.06,5.44,23.94,8.52c6.42,2.52,12.46,2.18,18.91-0.09c13-4.56,25.96-9.54,39.33-12.72
	C360.26,170.42,396.26,184.79,415.94,212.74z"/>
<path d="M652.52,301.58c4,0,8.3-0.21,12.55,0.15c0.98,0.08,2.45,2.04,2.57,3.24c0.34,3.59,0.12,7.23,0.12,12.03
	c1.55-1.29,2.2-1.67,2.64-2.21c19.03-23.64,54.43-19.61,66.91,7.89c7.6,16.75,7.25,33.96,0.15,50.8
	c-12.06,28.58-50.34,32.72-67.22,11.39c0,16.77,0,32.94,0,49.76c-5.99,0-11.51,0-17.71,0C652.52,390.43,652.52,346.31,652.52,301.58
	z M670.01,350.63c0,2.67-0.22,6.17,0.04,9.64c0.84,10.96,8.49,20.18,18.99,23.15c10.98,3.1,22.32-0.68,28.86-9.62
	c9.56-13.07,9.44-36.99-0.25-49.84c-9.34-12.39-26.78-13.83-38.19-3.29C670.82,328.65,669.09,338.8,670.01,350.63z"/>
<path d="M781.13,386.02c0,15.76,0,31.96,0,48.56c-5.82,0-11.16,0-17.11,0c0-44.18,0-88.16,0-132.59c4.58,0,9.44,0,14.61,0
	c0.33,4.66,0.65,9.22,0.99,14.1c0.87-0.46,1.41-0.58,1.67-0.91c10.93-14.02,25.37-18.47,42.16-14.16
	c17.74,4.55,26.13,17.92,29.32,34.86c2.71,14.41,1.21,28.48-6.04,41.55c-9.67,17.46-31.14,25.65-49.77,18.37
	C791.42,393.65,786.66,389.51,781.13,386.02z M780.8,349.17c0.32,4.71,0.37,8.88,0.92,12.97c1.47,10.78,9.16,19.14,19.46,21.51
	c11.65,2.67,22.42-1.03,28.38-10.66c8.59-13.86,8.97-28.61,2.62-43.37c-4.95-11.51-15.54-17.28-27.23-15.74
	c-11.32,1.48-21.08,10.86-23.01,22.46C781.22,340.74,781.14,345.25,780.8,349.17z"/>
<path d="M634.26,396.04c-5.75,0-10.9,0.25-16-0.17c-1.33-0.11-3.09-2.12-3.63-3.62c-3.99-11.08-7.63-22.28-11.62-33.37
	c-0.53-1.49-2.34-3.57-3.59-3.59c-14.63-0.25-29.26-0.16-44.08-0.16c-4.11,12.33-8.32,24.38-12.09,36.57
	c-1.1,3.54-2.74,4.68-6.28,4.42c-4.12-0.3-8.28-0.07-13.2-0.07c2.74-8.15,5.28-15.78,7.87-23.39
	c11.77-34.54,23.62-69.06,35.23-103.66c1.21-3.62,2.71-5.11,6.58-4.8c5.11,0.41,11.52-1.53,15.06,0.91
	c3.47,2.39,4.2,8.93,5.86,13.74c12.84,37.33,25.62,74.69,38.4,112.04C633.25,392.29,633.59,393.73,634.26,396.04z M578.38,282.35
	c-6.39,19.69-12.65,38.96-18.98,58.46c13.07,0,25.57,0,38.43,0C591.27,321.12,584.86,301.83,578.38,282.35z"/>
<path d="M910.48,390.25c1.56-5.15,2.94-9.7,4.16-13.74c8.24,2.37,16.04,5.07,24.05,6.78c7.24,1.55,14.57,0.78,21.52-2.23
	c14.71-6.38,17.88-25.6,5.42-35.57c-4.96-3.97-11.14-6.47-16.87-9.42c-6.34-3.26-13.12-5.77-19.16-9.5
	c-12.15-7.5-17.73-18.63-15.84-32.97c1.87-14.13,10.42-23.02,23.33-27.94c14.66-5.59,35.73-4.03,48.48,3.53
	c-1.39,4.16-2.83,8.47-4.37,13.09c-5.75-1.59-11.1-3.3-16.55-4.52c-7.1-1.59-14.18-1.41-21.09,1.27c-14.4,5.6-17.38,22.9-5.19,32.35
	c4.65,3.61,10.3,5.96,15.6,8.7c7.22,3.73,15.07,6.5,21.71,11.04c21.77,14.88,20.51,47.77-2.62,60.35
	C952.44,402.67,931.46,399.71,910.48,390.25z"/>
<path d="M1162.8,349.79c-0.69,37.81-37.46,60.44-70.31,42.91c-17.75-9.47-23.31-26.08-23.2-44.9c0.14-22.1,12.72-40.01,31.28-45.72
	C1134.68,291.58,1163.47,313.65,1162.8,349.79z M1144.69,348.54c-0.34-8.13-1.88-16.52-6.93-23.98
	c-10.31-15.25-31.81-15.85-42.9-1.17c-10.06,13.32-10.23,36.76-0.36,50.25c11.64,15.91,33.52,15.08,43.87-1.7
	C1142.68,364.97,1144.55,357.3,1144.69,348.54z"/>
<path d="M1256.23,352.13c-2.07,17.72,11.71,32.59,30.34,32.42c9.17-0.08,18.33-2.05,28.25-3.25c-0.76-0.81-0.58-0.71-0.54-0.57
	c3.77,13.64,5.19,11.85-8.27,15.29c-10.58,2.7-21.31,3.14-32.12,1.05c-17.45-3.38-28.57-13.68-32.98-30.69
	c-5.4-20.84-2.13-40.05,13.44-55.81c11.65-11.79,33.23-14.69,47.84-6.85c13.29,7.13,18.28,19.57,20.24,33.59
	c0.48,3.42-0.03,6.97,0.17,10.45c0.21,3.56-1.36,4.46-4.73,4.44c-18.63-0.13-37.27-0.06-55.9-0.06
	C1260.16,352.13,1258.35,352.13,1256.23,352.13z M1256.51,339.02c16.58,0,32.78,0,48.96,0c0.22-15.48-9.25-26.69-22.45-27.06
	C1269.1,311.58,1256.94,323.91,1256.51,339.02z"/>
<path d="M275.13,173c0.49-6.78,0.35-13.41,1.53-19.79c5.94-32.1,35.22-59.76,67.61-64.4c3.84-0.55,5.52,0.5,5.49,4.62
	c-0.27,33.65-15.64,58.31-44.75,74.54C296.26,172.83,286.47,173.9,275.13,173z"/>
<path d="M1033.84,301.18c8.18,0,15.94,0,24.04,0c0,4.67,0,8.9,0,13.7c-7.96,0-15.69,0-24.06,0c0,13.49-0.07,26.41,0.03,39.33
	c0.05,5.97-0.03,12,0.76,17.9c1.26,9.37,4.56,11.81,14.06,11.61c2.47-0.05,4.93-0.23,7.83-0.38c0.35,3.64,0.89,7.05,0.89,10.47
	c0,1-1.5,2.81-2.42,2.87c-6.74,0.48-13.7,1.7-20.23,0.6c-11.84-1.98-17.8-11.57-17.95-26.87c-0.15-16.47-0.04-32.93-0.04-49.4
	c0-1.79,0-3.59,0-5.9c-4.84,0-9.27,0-14.09,0c0-4.58,0-8.65,0-13.58c2.67,0,5.46-0.28,8.16,0.06c4.98,0.63,6.43-1.47,6-6.18
	c-0.37-4.12,0.14-8.32-0.15-12.46c-0.23-3.33,0.98-4.69,4.24-5.28c4.18-0.75,8.25-2.1,12.92-3.34
	C1033.84,283.58,1033.84,292.16,1033.84,301.18z"/>
<path d="M509.26,219.08c0-2.38,0-4.18,0-5.98c0-22.62,0-45.25,0-67.87c0-7.48-0.02-7.67,7.6-8.46c11.29-1.18,22.58-1.58,33.7,1.5
	c16.02,4.44,26.31,17.42,26.41,33.97c0.03,5.78-0.09,11.74-1.41,17.31c-4.2,17.61-16.3,27.24-33.74,29.31
	C531.37,220.09,520.65,219.08,509.26,219.08z M520.26,209.99c19.87,3.91,43.35-1.48,45.62-30.51c1.42-18.11-8.06-31.57-24.8-33.95
	c-5.52-0.79-11.23-0.17-16.85-0.32c-3.4-0.09-4.04,1.65-4.02,4.67c0.11,18.44,0.05,36.88,0.05,55.32
	C520.26,206.82,520.26,208.45,520.26,209.99z"/>
<path d="M1183.98,301.85c4.52,0,9.11,0,14.25,0c0.24,5.48,0.48,10.82,0.7,15.72c4.25-4.56,8.12-9.68,12.95-13.62
	c5.2-4.24,11.7-5.23,18.56-3.81c0,5.31,0,10.43,0,15.92c-0.67,0.05-1.28,0.18-1.87,0.12c-17.45-1.75-26.34,12.17-26.82,23.92
	c-0.67,16.09-0.45,32.22-0.61,48.34c-0.02,2.3,0,4.61,0,7.26c-5.84,0-11.23,0-17.15,0C1183.98,364.49,1183.98,333.32,1183.98,301.85
	z"/>
<path d="M644.76,160.48c4.08,0,7.54,0,11.43,0c3.94,15.1,7.86,30.16,12.16,46.64c4.13-13.06,7.84-24.78,11.55-36.51
	c0.65-2.06,1.53-4.07,1.89-6.18c0.59-3.41,2.3-4.34,5.76-4.45c4.08-0.13,5.71,1.17,6.81,5.09c3.5,12.47,7.48,24.8,11.28,37.18
	c0.27,0.87,0.66,1.7,1.51,3.89c4.5-16.11,8.62-30.87,12.73-45.6c3.8,0,7.23,0,11.12,0c-6.38,19.73-12.65,39.12-18.87,58.34
	c-10.1,0.91-10.13,0.92-13.08-8.2c-3.81-11.82-7.57-23.66-11.4-35.65c-4.94,14.75-9.78,29.22-14.7,43.89c-3.41,0-6.66,0-10.47,0
	C656.68,199.78,650.82,180.47,644.76,160.48z"/>
<path d="M990.6,132.79c3.85,0,7.11,0,10.77,0c0,28.64,0,57.25,0,86.14c-2.77,0-5.53,0-8.87,0c-0.33-2.55-0.67-5.22-1.11-8.66
	c-3.93,5.62-8.78,8.82-14.87,9.93c-15.83,2.87-28.17-7.31-30.32-25.15c-0.91-7.55,0.02-14.9,3.5-21.79
	c7.71-15.27,25.75-19.08,39-8.24c0.34,0.28,0.82,0.4,1.91,0.92c0-5.8,0-11.19,0-16.59C990.6,143.91,990.6,138.48,990.6,132.79z
	 M990.94,189.81c-0.13-0.01-0.26-0.03-0.38-0.04c0-2.32,0.17-4.66-0.03-6.96c-0.69-8.03-5.83-13.72-13.49-15.09
	c-6.99-1.25-13.56,2.29-17,9.33c-4.21,8.61-4.11,17.28,0.1,25.86c3.01,6.14,8.76,9.3,15.44,8.71c6.75-0.59,12.47-5.03,14.1-11.5
	C990.51,196.78,990.54,193.25,990.94,189.81z"/>
<path d="M1290.73,219.13c-3.43,0-6.54,0-10.16,0c-0.17-2.13-0.45-4.21-0.49-6.29c-0.17-10.29,0.06-20.61-0.5-30.88
	c-0.49-8.97-5.78-14.15-13.1-14c-8.39,0.17-14.89,6.72-15.02,15.47c-0.15,10.13-0.03,20.27-0.05,30.4c0,1.62-0.14,3.24-0.22,5.1
	c-3.4,0-6.51,0-10.36,0c0-28.57,0-57.16,0-86.09c3.22,0,6.3,0,10.02,0c0,11.3,0,22.67,0,35.27c2.3-1.84,3.64-2.88,4.94-3.97
	c6.74-5.64,14.33-6.85,22.41-3.76c8.02,3.06,12.02,9.73,12.37,17.78C1291.14,191.73,1290.73,205.32,1290.73,219.13z"/>
<path d="M825.1,189.89c0.16-22.4,19.03-36.59,39.57-29.54c12.83,4.4,17.87,14.42,18.89,27.22c1.87,23.47-19.7,39.57-41.38,30.78
	C831.27,213.92,825.01,203.5,825.1,189.89z M835.29,189.84c0.35,0.14,0.69,0.27,1.04,0.41c0.22,1.98,0.29,3.98,0.68,5.93
	c1.79,8.96,8.44,15.55,16.07,16.03c8.28,0.51,14.59-4.36,17.72-13.8c2.6-7.83,1.65-15.39-2.19-22.59
	c-5.77-10.83-21.01-11.89-27.53-1.49C838.21,178.91,837.17,184.63,835.29,189.84z"/>
<path d="M1040.82,190.9c0.39-12.11,3.66-22.7,15.02-28.63c10.16-5.3,20.65-5.02,30.47,0.99c13.15,8.04,17.11,28.32,8.8,43.22
	c-7.27,13.05-24.72,18.2-38.77,11.26C1045.21,212.23,1041.24,202.48,1040.82,190.9z M1088.74,189.48
	c-1.69-4.93-2.64-10.29-5.21-14.71c-5.68-9.81-19.83-10.16-26.55-1.12c-6.77,9.1-6.7,23.05,0.16,32.15
	c5.88,7.79,16.48,8.72,23.58,2.02C1085.89,202.93,1087.73,196.73,1088.74,189.48z"/>
<path d="M642.17,188.24c0.08,11.36-2.73,21.54-13.04,27.89c-9.81,6.04-20.2,6.27-30.47,1.09c-12.46-6.3-17.92-22.72-13-38.31
	c4.54-14.41,16.88-21.85,32.71-19.71c13.84,1.87,23.18,12.48,23.8,27.05C642.2,186.91,642.17,187.57,642.17,188.24z M631.97,189.94
	c-1.63-4.97-2.54-10.34-5.02-14.85c-5.69-10.3-20.36-10.6-27.11-0.98c-6.4,9.12-6.18,22.9,0.51,31.79
	c5.87,7.8,17.23,8.56,24.03,1.53C629,202.67,630.88,196.78,631.97,189.94z"/>
<path d="M1348.45,209.33c0.67,2.59,1.25,4.81,1.82,6.99c-9.34,6.15-28.45,5.77-37.65-0.68c-9.21-6.45-13.71-20.8-10.57-33.73
	c3.24-13.36,11.39-21.4,23.19-22.86c15.21-1.88,26.38,6.81,28.12,22.06c0.37,3.26,0.05,6.61,0.05,10.61c-13.72,0-27.26,0-40.69,0
	C1310.7,208.45,1324.69,215.2,1348.45,209.33z M1342.62,183.18c-0.13-10.63-5.77-16.72-14.57-16.35
	c-8.72,0.36-15.73,7.95-14.96,16.35C1322.83,183.18,1332.59,183.18,1342.62,183.18z"/>
<path d="M927.19,219.01c-0.5-2.32-0.91-4.22-1.43-6.65c-5.63,6.22-12.09,8.85-19.92,8.18c-7.72-0.67-13.18-4.16-15.55-11.78
	c-2.34-7.52-0.44-15.76,6.2-19.96c5-3.17,11.13-4.72,16.92-6.41c3.44-1,7.2-0.88,11.11-1.29c1.02-4.35,0.16-8.22-3.25-10.8
	c-8.15-6.16-16.41-2.57-24.96,0.63c-0.85-2.15-1.67-4.22-2.45-6.21c8.15-6.86,25.37-8.4,33.36-2.14c3.48,2.72,7.01,7.5,7.41,11.64
	c1.42,14.79,1.51,29.71,2.11,44.79C932.98,219.01,930.19,219.01,927.19,219.01z M925.01,187.86c-6.82,1.77-13.02,2.76-18.7,5.03
	c-4.51,1.8-6.31,6.2-5.53,11.2c0.65,4.19,3.08,6.97,7.19,8.01c7.49,1.9,15.98-3.71,16.97-11.44
	C925.39,197.09,925.01,193.42,925.01,187.86z"/>
<path d="M749.93,218.97c-4.06,0-7.34,0-10.88,0c0-19.45,0-38.67,0-58.27c2.83,0,5.71,0,8.71,0c0.38,2.26,0.75,4.53,1.25,7.49
	c1.4-1.31,2.38-2.27,3.41-3.19c6.77-6.05,14.58-7.81,23.17-4.97c8.34,2.75,12.97,9.15,13.33,17.53c0.6,13.7,0.16,27.45,0.16,41.49
	c-3.34,0-6.74,0-10.67,0c0-9.32,0.03-18.44-0.01-27.55c-0.02-3.32,0-6.66-0.34-9.95c-0.89-8.57-6.36-14-13.55-13.69
	c-7.79,0.34-14.38,6.95-14.52,15.01c-0.18,10.47-0.05,20.94-0.05,31.41C749.93,215.76,749.93,217.21,749.93,218.97z"/>
<path d="M1160.15,219.05c-3.55,0-6.69,0-10.49,0c0-3.74,0.07-7.34-0.01-10.93c-0.23-9.46-0.11-18.96-0.96-28.37
	c-0.63-7.03-5.07-11.02-11-11.67c-6.37-0.7-12.95,2.9-15.19,8.98c-1.18,3.19-1.67,6.78-1.74,10.2c-0.22,10.45-0.08,20.9-0.08,31.64
	c-3.75,0-7.13,0-10.75,0c0-19.42,0-38.65,0-58.24c2.9,0,5.77,0,8.91,0c0.35,2.33,0.69,4.61,1.09,7.35c0.87-0.7,1.63-1.18,2.24-1.82
	c6.95-7.24,15.28-8.99,24.68-6.09c8.89,2.75,12.7,9.87,13.12,18.21C1160.64,191.71,1160.15,205.16,1160.15,219.05z"/>
<path d="M1205.78,168.72c-3.19-0.18-5.79-0.33-8.68-0.49c0-2.61,0-5.01,0-7.83c2.69-0.15,5.28-0.29,8.68-0.47
	c0-2.99,0.33-5.95-0.08-8.81c-0.61-4.29,1.29-6.08,5.22-6.6c1.77-0.24,3.51-0.74,5.69-1.22c0,5.63,0,10.91,0,16.67
	c5.11,0,9.87,0,15.05,0c0,2.99,0,5.51,0,8.51c-3.78,0-7.41,0.16-11.03-0.05c-3.13-0.18-4.08,1.19-4.05,4.1
	c0.09,9.14-0.12,18.29,0.1,27.43c0.23,9.84,1.93,11.15,13.44,11.5c2.92,6.42,1.93,8.3-4.77,9.06c-11.55,1.31-18.17-3.44-19.01-14.83
	c-0.76-10.26-0.42-20.59-0.56-30.89C1205.76,172.85,1205.78,170.91,1205.78,168.72z"/>
<path d="M803.79,132.77c3.32,0,6.41,0,10.05,0c0,28.79,0,57.41,0,86.24c-3.4,0-6.53,0-10.05,0
	C803.79,190.3,803.79,161.66,803.79,132.77z"/>
</svg>
