<?xml version="1.0" encoding="UTF-8"?>
<svg width="212px" height="68px" viewBox="0 0 212 68" version="1.1" xmlns="http://www.w3.org/2000/svg" xmlns:xlink="http://www.w3.org/1999/xlink">
    <!-- Generator: Sketch 49 (51002) - http://www.bohemiancoding.com/sketch -->
    <title>logo</title>
    <desc>Created with Sketch.</desc>
    <defs></defs>
    <g id="Page-1" stroke="none" stroke-width="1" fill="none" fill-rule="evenodd">
        <g id="logo" fill-rule="nonzero">
            <path d="M28,22.8752456 C28,17.8585462 25.4825888,15.3172888 20.5171986,15.3172888 L7.4837933,15.3172888 C5.24014312,15.3172888 4.09947217,14.1787819 4.09947217,11.9312377 L4.09947217,7.55795678 C4.09947217,5.31335953 5.24014312,4.17681729 7.4837933,4.17681729 L20.4993446,4.17681729 L25.825782,0 L7.4837933,0 C2.51939495,0 0,2.54027505 0,7.55795678 L0,11.9312377 C0,16.9518664 2.51939495,19.4990177 7.4837933,19.4990177 L20.5171986,19.4990177 C22.7638244,19.4990177 23.9025116,20.6345776 23.9025116,22.8752456 L23.9025116,29.5275049 C23.9025116,31.71611 22.7638244,32.8261297 22.0357788,32.8261297 L7.5502497,32.8261297 L2.17223423,37 L20.5171986,37 C25.4825888,37 28,34.4862475 28,29.5275049 L28,22.8752456 Z" id="Fill-1" fill="#501B66"></path>
            <polygon id="Fill-3" fill="#501B66" points="104.812698 37 109 37 93.076249 0 91.4932206 3.97652507 77 37 81.2778171 37 93.0683782 9.4459704"></polygon>
            <polygon id="Fill-5" fill="#501B66" points="37 27.5691656 36.9942015 27.5730861 36.9681082 4.02834437 33 0 33 4.01854305 33 5.88765563 33 29.6313642 33 32.9706755 33 36.9950993 36.9980672 37 37 37 37 36.9950993"></polygon>
            <polygon id="Fill-7" fill="#501B66" points="142 1.30499149 142 0 127.528134 18.8972996 127.500494 18.9258186 127.472853 18.8972996 113 0 113 1.30499149 113 7.10517223 113 37 116.86772 37 116.86772 11.8609664 117.011846 11.980943 126.764067 23.8419094 127.279368 24.4722783 127.48766 24.6787954 127.500494 24.661094 127.514314 24.6787954 127.722606 24.4722783 128.235933 23.8419094 137.990128 11.980943 138.134255 11.8609664 138.134255 37 142 37 142 7.10517223"></polygon>
            <polygon id="Fill-9" fill="#501B66" points="41 0 41 36.9980399 44.9340996 37 44.9340996 9.3918629 72 36.9980399 72 31.43231"></polygon>
            <polygon id="Fill-11" fill="#501B66" points="73 4.00823329 69 0 69 23.0005803 73 27"></polygon>
            <polygon id="Fill-13" fill="#501B66" points="154 37 156 37 156 16 154 16"></polygon>
            <polygon id="Fill-15" fill="#501B66" points="179 37 163.262902 21.4654449 163.262902 37 161 37 161 16 176.737098 32.065333 176.737098 16 179 16"></polygon>
            <polygon id="Fill-16" fill="#501B66" points="194 18.109239 189.138985 18.109239 189.138985 37 186.847542 37 186.847542 18.109239 182 18.109239 182 16 194 16"></polygon>
            <polygon id="Fill-17" fill="#501B66" points="200 16.9564347 196.406537 24 195 23.4682023 197.687436 16"></polygon>
            <polygon id="Fill-18" fill="#501B66" points="212 37 204 37 204 16 206.360233 16 206.360233 34.8513457 212 34.8513457"></polygon>
            <polygon id="Fill-19" fill="#000000" points="0 68 2 68 2 52 0 52"></polygon>
            <polygon id="Fill-20" fill="#000000" points="3 53.9836997 6.47584917 53.9836997 6.47584917 68 8.5148021 68 8.5148021 53.9836997 12 53.9836997 12 52 3 52"></polygon>
            <path d="M25.3597711,57.8670747 L25.2820932,57.8347495 C24.2937449,57.3084556 23.630417,56.8407511 23.3033524,56.4488086 C22.9946852,56.0790897 22.8383074,55.6144156 22.8383074,55.0598372 C22.8383074,54.4557609 23.0345462,53.986036 23.4413328,53.6314695 C23.8501635,53.2799334 24.427637,53.1021451 25.1584219,53.1021451 C25.6827473,53.1021451 26.1600572,53.2092222 26.5760425,53.427417 C26.9848733,53.6385406 27.2996729,53.9375483 27.5153312,54.3193891 L27.6492232,54.5598075 L29.2109567,53.1223483 L29.1067048,52.969814 C28.6621014,52.31725 28.112224,51.8192406 27.4703598,51.4909383 C26.8274734,51.1626359 26.0762469,51 25.2422322,51 C23.8603843,51 22.7340556,51.3818409 21.8898201,52.1364312 C21.0384301,52.8980926 20.6081357,53.9092638 20.6081357,55.146711 C20.6081357,56.2023293 20.9065822,57.0943015 21.4983647,57.7903025 C22.0758381,58.471151 23.1030253,59.1711926 24.5492641,59.8772951 C25.7226083,60.4480361 26.5678659,60.9985739 27.060507,61.5208271 C27.5367948,62.0208569 27.7688062,62.5966486 27.7688062,63.2754769 C27.7688062,64.1189613 27.5204415,64.7523323 27.0104252,65.2109454 C26.5014309,65.666528 25.7798446,65.8968447 24.8650859,65.8968447 C24.1302126,65.8968447 23.4771055,65.7170361 22.9200736,65.3655 C22.3691742,65.0169945 21.9756746,64.5220156 21.7487735,63.9068275 L21.6434996,63.6118605 L20,64.9978014 L20.0603025,65.1422544 C20.439493,66.0352368 21.0517171,66.7413394 21.887776,67.2443995 C22.7166803,67.7454394 23.6937858,68 24.7914963,68 C26.3838921,68 27.6635323,67.5696714 28.5926002,66.720126 C29.5278005,65.8635094 30,64.6836413 30,63.2148672 C30,61.2996019 28.444399,59.5025254 25.3597711,57.8670747" id="Fill-21" fill="#000000"></path>
            <path d="M39.5010029,65.8968447 C37.7027139,65.8968447 36.1842478,65.2755957 34.9917404,64.0533008 C33.7962242,62.8279755 33.1894395,61.2975816 33.1894395,59.4984848 C33.1894395,57.7428249 33.7731563,56.2195021 34.9245428,54.9689227 C36.0689086,53.7314754 37.6104425,53.1021451 39.5010029,53.1021451 C41.2832448,53.1021451 42.7976991,53.7193535 44.000236,54.9446788 C45.2037758,56.1700042 45.8135693,57.7024184 45.8135693,59.4984848 C45.8135693,61.2895003 45.2017699,62.8188841 43.9932153,64.04825 C42.7896755,65.2755957 41.2772271,65.8968447 39.5010029,65.8968447 M39.5010029,51 C37.0899115,51 35.0489086,51.8182304 33.4341593,53.4344881 C31.8184071,55.0517559 31,57.091271 31,59.4984848 C31,61.8723632 31.8264307,63.9058173 33.4542183,65.5362172 C35.0840118,67.171668 37.1189971,68 39.5010029,68 C41.8759882,68 43.9089676,67.1736883 45.5417699,65.5422782 C47.1725664,63.9118783 48,61.8814546 48,59.4984848 C48,57.091271 47.18059,55.0517559 45.559823,53.4344881 C43.9460767,51.8182304 41.9060767,51 39.5010029,51" id="Fill-22" fill="#000000"></path>
            <polygon id="Fill-23" fill="#000000" points="51.0523593 52 49 52 49 68 55 68 55 65.9855511 51.0523593 65.9855511"></polygon>
            <path d="M64.9102776,62.1131161 C64.9102776,63.4433814 64.62884,64.4277583 64.0764946,65.0536514 C63.529893,65.6708248 62.6645201,65.9828025 61.5043077,65.9828025 C60.3527108,65.9828025 59.4873379,65.6669493 58.9340353,65.0420249 C58.3740319,64.414194 58.0906797,63.4259416 58.0906797,62.1131161 L58.0906797,52 L56,52 L56,61.7672278 C56,63.8202737 56.4642764,65.3888822 57.3784701,66.4246094 C58.2984074,67.4719632 59.6874075,68 61.5043077,68 C63.3422679,68 64.7331825,67.4758387 65.6416326,66.4449558 C66.5424245,65.4227928 67,63.8483711 67,61.7672278 L67,52 L64.9102776,52 L64.9102776,62.1131161 Z" id="Fill-24" fill="#000000"></path>
            <polygon id="Fill-25" fill="#000000" points="69 53.9836997 72.476784 53.9836997 72.476784 68 74.5138672 68 74.5138672 53.9836997 78 53.9836997 78 52 69 52"></polygon>
            <polygon id="Fill-26" fill="#000000" points="80 68 82 68 82 52 80 52"></polygon>
            <path d="M92.5010028,65.8968447 C90.7029259,65.8968447 89.1856418,65.2755957 87.9922723,64.0533008 C86.7968971,62.8279755 86.190184,61.2955612 86.190184,59.4984848 C86.190184,57.7428249 86.773832,56.2195021 87.9260854,54.9689227 C89.071319,53.7314754 90.6106654,53.1021451 92.5010028,53.1021451 C94.2840373,53.1021451 95.7973101,53.7193535 97.000708,54.9446788 C98.204106,56.1700042 98.812824,57.7024184 98.812824,59.4984848 C98.812824,61.2895003 98.2021,62.8188841 96.9936881,64.04825 C95.7892874,65.2755957 94.2770175,65.8968447 92.5010028,65.8968447 M92.5010028,51 C90.0901958,51 88.0494337,51.8182304 86.4348749,53.4344881 C84.8203162,55.0517559 84,57.091271 84,59.4984848 C84,61.8723632 84.8263332,63.9058173 86.4549316,65.5362172 C88.0845328,67.171668 90.1182751,68 92.5010028,68 C94.8777135,68 96.9094502,67.1736883 98.541057,65.5422782 C100.172664,63.9118783 101,61.8814546 101,59.4984848 C101,57.091271 100.179684,55.0517559 98.561114,53.4344881 C96.9455521,51.8182304 94.9057928,51 92.5010028,51" id="Fill-27" fill="#000000"></path>
            <polygon id="Fill-28" fill="#000000" points="114.878464 63.2309254 103 51 103 67.7100087 105.123481 67.7100087 105.123481 56.1724978 117 68 117 51.7358283 114.878464 51.7358283"></polygon>
            <path d="M123.361267,57.8670747 L123.282575,57.8347495 C122.29535,57.3084556 121.631068,56.8427714 121.305059,56.4488086 C120.996423,56.08111 120.836995,55.6154258 120.836995,55.0598372 C120.836995,54.4557609 121.037302,53.986036 121.443025,53.6314695 C121.84977,53.2799334 122.427184,53.1021451 123.157895,53.1021451 C123.683189,53.1021451 124.161472,53.2092222 124.576392,53.427417 C124.984159,53.6385406 125.298927,53.9375483 125.515585,54.3193891 L125.650485,54.5598075 L127.210015,53.1223483 L127.106796,52.969814 C126.662238,52.31725 126.112417,51.8192406 125.470618,51.4909383 C124.82882,51.1626359 124.079714,51 123.240675,51 C121.862034,51 120.734798,51.3818409 119.890649,52.1364312 C119.039346,52.8980926 118.609096,53.9122943 118.609096,55.146711 C118.609096,56.200309 118.908533,57.0943015 119.499234,57.7903025 C120.075626,58.471151 121.102708,59.1711926 122.549821,59.8772951 C123.724067,60.4480361 124.568217,60.9985739 125.059785,61.5208271 C125.537046,62.0208569 125.769034,62.5966486 125.769034,63.2754769 C125.769034,64.1189613 125.520695,64.7523323 125.010731,65.2109454 C124.501788,65.666528 123.780276,65.8968447 122.864589,65.8968447 C122.131834,65.8968447 121.47675,65.7170361 120.920797,65.3655 C120.370976,65.0169945 119.975473,64.5250461 119.749617,63.9068275 L119.64231,63.6118605 L118,64.9978014 L118.061318,65.1422544 C118.44047,66.0372571 119.054676,66.7413394 119.887583,67.2443995 C120.718447,67.7454394 121.695452,68 122.792029,68 C124.385284,68 125.664793,67.5696714 126.592744,66.720126 C127.526827,65.8635094 128,64.6836413 128,63.2148672 C128,61.2996019 126.443536,59.5025254 123.361267,57.8670747" id="Fill-29" fill="#000000"></path>
        </g>
    </g>
</svg>