<svg width="64" height="65" viewBox="0 0 64 65" fill="none" xmlns="http://www.w3.org/2000/svg">
<path d="M63.175 31.7374L58.392 25.0963L59.3434 16.8564C59.3985 16.3802 59.1444 15.9233 58.7195 15.7348L51.3682 12.4801L48.227 4.84587C48.0455 4.40475 47.6053 4.14095 47.1466 4.19816L39.2099 5.18699L32.8131 0.215867C32.4435 -0.0719558 31.935 -0.0719558 31.5654 0.215867L25.1686 5.18699L17.2329 4.19816C16.7743 4.14095 16.334 4.40475 16.1526 4.84587L13.0166 12.4801L5.66423 15.7348C5.23935 15.9233 4.98525 16.3802 5.04036 16.8564L5.99176 25.0963L1.20353 31.7374C0.926297 32.1212 0.926297 32.6489 1.20353 33.0328L5.9928 39.674L5.04036 47.9138C4.98525 48.39 5.23935 48.8471 5.66423 49.0354L13.0155 52.2901L16.1516 59.9244C16.333 60.3655 16.7732 60.6293 17.2319 60.5721L25.1686 59.5833L31.5654 64.5544C31.935 64.8422 32.4435 64.8422 32.8131 64.5544L39.2099 59.5887L47.1456 60.5775C47.6043 60.6347 48.0445 60.3709 48.226 59.9298L51.362 52.2955L58.7143 49.0408C59.1392 48.8523 59.3933 48.3954 59.3382 47.9192L58.392 39.674L63.175 33.0328C63.4522 32.6491 63.4522 32.1212 63.175 31.7374ZM14.2165 50.4755L7.19688 47.3665L8.10566 39.5023C8.13776 39.2265 8.06627 38.9485 7.90602 38.7262L3.33406 32.3851L7.90914 26.0441C8.06939 25.8217 8.14088 25.5438 8.10878 25.268L7.8062 22.6696H16.5924V50.7367H14.5638C14.467 50.6254 14.3486 50.5363 14.2165 50.4755ZM56.4725 38.7305C56.3123 38.9528 56.2408 39.2308 56.2729 39.5066L57.1817 47.3708L50.162 50.4798C49.9152 50.5888 49.7184 50.7926 49.613 51.0487L46.6195 58.3364L39.0446 57.3919C38.7792 57.3591 38.5118 57.4337 38.298 57.6002L32.1893 62.3425L26.0805 57.5927C25.9005 57.4525 25.6816 57.3768 25.4566 57.3768C25.4153 57.3766 25.374 57.3792 25.3329 57.3843L17.758 58.3289L15.5256 52.8957H18.672V50.7367H44.6668C46.9638 50.7356 48.8251 48.8016 48.8241 46.4168C48.8237 45.5627 48.5794 44.7278 48.122 44.0179C50.2895 43.2285 51.4303 40.7643 50.67 38.514C50.5037 38.0222 50.2532 37.5655 49.9302 37.1663C50.2194 36.9842 50.4863 36.7667 50.7256 36.5186C52.3383 34.8642 52.354 32.1659 50.7606 30.4914C50.5048 30.2226 50.2157 29.9904 49.9011 29.8008C50.6177 28.938 50.9745 27.8149 50.893 26.6789C50.6835 24.3743 48.7989 22.6265 46.5696 22.6696H36.3484V14.0335C36.3451 11.0541 34.0193 8.63952 31.1495 8.63601H29.0699C28.4957 8.63601 28.0301 9.11936 28.0301 9.71552V14.0335C28.0249 18.8009 24.3038 22.6642 19.7118 22.6696H18.672V20.5106H7.55665L7.19688 17.4038L14.2165 14.2948C14.4633 14.1857 14.66 13.982 14.7655 13.7259L17.7591 6.43814L25.3339 7.3827C25.5993 7.4163 25.8671 7.34168 26.0805 7.17436L32.1893 2.42777L38.298 7.1776C38.5116 7.34465 38.7792 7.41941 39.0446 7.38594L46.6195 6.44138L49.6141 13.7291C49.7193 13.985 49.9156 14.1887 50.162 14.298L57.1817 17.407L56.2729 25.2712C56.2408 25.547 56.3123 25.825 56.4725 26.0474L61.0445 32.3851L56.4725 38.7305ZM35.3086 24.8286H46.5696C47.7038 24.7972 48.6763 25.6635 48.8186 26.8322C48.8676 27.4576 48.6467 28.0732 48.2155 28.5129C47.8272 28.9198 47.2979 29.148 46.7463 29.1466H44.6668C44.0925 29.1466 43.627 29.63 43.627 30.2261C43.627 30.8223 44.0925 31.3056 44.6668 31.3056H47.6094C48.7436 31.2742 49.7161 32.1405 49.8584 33.3092C49.9074 33.9346 49.6865 34.5502 49.2553 34.99C48.867 35.3968 48.3377 35.625 47.7861 35.6236H44.6668C44.0925 35.6236 43.627 36.107 43.627 36.7032C43.627 37.2993 44.0925 37.7827 44.6668 37.7827H46.7463C47.8949 37.7827 48.8259 38.7492 48.8259 39.9417C48.8259 41.1341 47.8949 42.1007 46.7463 42.1007H43.627C43.0527 42.1007 42.5872 42.584 42.5872 43.1802C42.5872 43.7763 43.0527 44.2597 43.627 44.2597H44.6668C45.8153 44.2597 46.7463 45.2263 46.7463 46.4187C46.7463 47.6112 45.8153 48.5777 44.6668 48.5777H18.672V24.8286H19.7118C25.4518 24.822 30.1033 19.9928 30.1097 14.0335V10.795H31.1495C32.8723 10.795 34.2689 12.2449 34.2689 14.0335V23.7491C34.2689 24.3452 34.7344 24.8286 35.3086 24.8286Z" fill="white"/>
</svg>
