<svg width="24" height="22" viewBox="0 0 24 22" fill="none" xmlns="http://www.w3.org/2000/svg">
<path d="M19.4895 15.1019L19.4895 15.1019L19.4912 15.0982L23.217 6.5315L23.217 6.5315L23.2181 6.52882C23.3593 6.19367 23.3238 5.82099 23.1296 5.52089C22.9327 5.2166 22.5943 5.03957 22.2398 5.03957H10.9264C10.3396 5.03957 9.86056 5.51864 9.86056 6.10544C9.86056 6.69224 10.3396 7.17131 10.9264 7.17131H20.6074L17.8063 13.6062H9.077L5.79671 1.74355C5.79664 1.74326 5.79656 1.74298 5.79648 1.74269C5.67093 1.2778 5.24379 0.960205 4.76664 0.960205H1.81587C1.22907 0.960205 0.75 1.43928 0.75 2.02608C0.75 2.61288 1.22907 3.09195 1.81587 3.09195H3.96444L7.24478 14.9546C7.24486 14.9549 7.24494 14.9552 7.24502 14.9555C7.37058 15.4204 7.79771 15.738 8.27485 15.738H18.5141C18.9423 15.738 19.3146 15.4867 19.4895 15.1019Z" fill="#00589F" stroke="#00589F" stroke-width="0.5"/>
<path d="M7.49842 21.4762C8.65631 21.4762 9.59767 20.5348 9.59767 19.3769C9.59767 18.219 8.65631 17.2776 7.49842 17.2776C6.34053 17.2776 5.39917 18.2189 5.39917 19.3768C5.39917 20.5347 6.34052 21.4762 7.49842 21.4762Z" fill="#00589F" stroke="#00589F" stroke-width="0.5"/>
<path d="M19.1947 21.4762H19.2051L19.2154 21.4754C19.7665 21.4294 20.2765 21.1836 20.6476 20.7515C21.0211 20.3304 21.188 19.7886 21.1576 19.2274L21.1576 19.2274L21.1574 19.2241C21.0801 18.0794 20.0765 17.201 18.9197 17.2781C17.7589 17.3556 16.8964 18.3752 16.9735 19.5161L16.9735 19.5161L16.9736 19.5168C17.0506 20.6105 17.9592 21.4762 19.0587 21.4762H19.0589H19.0592H19.0594H19.0596H19.0599H19.0601H19.0604H19.0606H19.0609H19.0611H19.0613H19.0616H19.0618H19.0621H19.0623H19.0626H19.0628H19.063H19.0633H19.0635H19.0638H19.064H19.0643H19.0645H19.0648H19.065H19.0653H19.0655H19.0657H19.066H19.0662H19.0665H19.0667H19.067H19.0672H19.0675H19.0677H19.068H19.0682H19.0685H19.0687H19.069H19.0692H19.0695H19.0697H19.07H19.0702H19.0705H19.0708H19.071H19.0713H19.0715H19.0718H19.072H19.0723H19.0725H19.0728H19.073H19.0733H19.0735H19.0738H19.0741H19.0743H19.0746H19.0748H19.0751H19.0753H19.0756H19.0759H19.0761H19.0764H19.0766H19.0769H19.0771H19.0774H19.0777H19.0779H19.0782H19.0784H19.0787H19.079H19.0792H19.0795H19.0797H19.08H19.0803H19.0805H19.0808H19.0811H19.0813H19.0816H19.0818H19.0821H19.0824H19.0826H19.0829H19.0832H19.0834H19.0837H19.0839H19.0842H19.0845H19.0847H19.085H19.0853H19.0855H19.0858H19.0861H19.0863H19.0866H19.0869H19.0871H19.0874H19.0877H19.0879H19.0882H19.0885H19.0887H19.089H19.0893H19.0895H19.0898H19.0901H19.0903H19.0906H19.0909H19.0911H19.0914H19.0917H19.0919H19.0922H19.0925H19.0928H19.093H19.0933H19.0936H19.0938H19.0941H19.0944H19.0946H19.0949H19.0952H19.0955H19.0957H19.096H19.0963H19.0965H19.0968H19.0971H19.0974H19.0976H19.0979H19.0982H19.0984H19.0987H19.099H19.0993H19.0995H19.0998H19.1001H19.1004H19.1006H19.1009H19.1012H19.1015H19.1017H19.102H19.1023H19.1025H19.1028H19.1031H19.1034H19.1036H19.1039H19.1042H19.1045H19.1047H19.105H19.1053H19.1056H19.1058H19.1061H19.1064H19.1067H19.1069H19.1072H19.1075H19.1078H19.1081H19.1083H19.1086H19.1089H19.1092H19.1094H19.1097H19.11H19.1103H19.1105H19.1108H19.1111H19.1114H19.1116H19.1119H19.1122H19.1125H19.1128H19.113H19.1133H19.1136H19.1139H19.1141H19.1144H19.1147H19.115H19.1153H19.1155H19.1158H19.1161H19.1164H19.1166H19.1169H19.1172H19.1175H19.1178H19.118H19.1183H19.1186H19.1189H19.1191H19.1194H19.1197H19.12H19.1203H19.1205H19.1208H19.1211H19.1214H19.1217H19.1219H19.1222H19.1225H19.1228H19.123H19.1233H19.1236H19.1239H19.1242H19.1244H19.1247H19.125H19.1253H19.1256H19.1258H19.1261H19.1264H19.1267H19.1269H19.1272H19.1275H19.1278H19.1281H19.1283H19.1286H19.1289H19.1292H19.1295H19.1297H19.13H19.1303H19.1306H19.1309H19.1311H19.1314H19.1317H19.132H19.1322H19.1325H19.1328H19.1331H19.1334H19.1336H19.1339H19.1342H19.1345H19.1348H19.135H19.1353H19.1356H19.1359H19.1361H19.1364H19.1367H19.137H19.1373H19.1375H19.1378H19.1381H19.1384H19.1386H19.1389H19.1392H19.1395H19.1398H19.14H19.1403H19.1406H19.1409H19.1411H19.1414H19.1417H19.142H19.1422H19.1425H19.1428H19.1431H19.1434H19.1436H19.1439H19.1442H19.1445H19.1447H19.145H19.1453H19.1456H19.1458H19.1461H19.1464H19.1467H19.1469H19.1472H19.1475H19.1478H19.148H19.1483H19.1486H19.1489H19.1491H19.1494H19.1497H19.15H19.1502H19.1505H19.1508H19.1511H19.1513H19.1516H19.1519H19.1522H19.1524H19.1527H19.153H19.1533H19.1535H19.1538H19.1541H19.1543H19.1546H19.1549H19.1552H19.1554H19.1557H19.156H19.1563H19.1565H19.1568H19.1571H19.1573H19.1576H19.1579H19.1582H19.1584H19.1587H19.159H19.1592H19.1595H19.1598H19.16H19.1603H19.1606H19.1609H19.1611H19.1614H19.1617H19.1619H19.1622H19.1625H19.1627H19.163H19.1633H19.1635H19.1638H19.1641H19.1643H19.1646H19.1649H19.1651H19.1654H19.1657H19.1659H19.1662H19.1665H19.1667H19.167H19.1673H19.1675H19.1678H19.1681H19.1683H19.1686H19.1689H19.1691H19.1694H19.1697H19.1699H19.1702H19.1705H19.1707H19.171H19.1712H19.1715H19.1718H19.172H19.1723H19.1726H19.1728H19.1731H19.1733H19.1736H19.1739H19.1741H19.1744H19.1746H19.1749H19.1752H19.1754H19.1757H19.1759H19.1762H19.1765H19.1767H19.177H19.1772H19.1775H19.1777H19.178H19.1783H19.1785H19.1788H19.179H19.1793H19.1795H19.1798H19.1801H19.1803H19.1806H19.1808H19.1811H19.1813H19.1816H19.1818H19.1821H19.1823H19.1826H19.1828H19.1831H19.1833H19.1836H19.1839H19.1841H19.1844H19.1846H19.1849H19.1851H19.1854H19.1856H19.1859H19.1861H19.1864H19.1866H19.1869H19.1871H19.1873H19.1876H19.1878H19.1881H19.1883H19.1886H19.1888H19.1891H19.1893H19.1896H19.1898H19.1901H19.1903H19.1905H19.1908H19.191H19.1913H19.1915H19.1918H19.192H19.1922H19.1925H19.1927H19.193H19.1932H19.1935H19.1937H19.1939H19.1942H19.1944H19.1947Z" fill="#00589F" stroke="#00589F" stroke-width="0.5"/>
</svg>
