<svg width="13" height="13" viewBox="0 0 13 13" fill="none" xmlns="http://www.w3.org/2000/svg">
<g clip-path="url(#clip0)">
<path d="M6.51473 12.9948C8.45085 12.9948 10.387 12.9866 12.3231 13.0008C12.7975 13.0044 13.0021 12.7268 13 12.3182C12.9875 9.97313 12.9915 7.62809 12.9968 5.28304C12.9975 4.92997 12.8561 4.66739 12.5839 4.46182C12.0403 4.05102 11.4984 3.63809 10.9512 3.23193C10.8596 3.16388 10.8265 3.09263 10.8276 2.9804C10.8325 2.37472 10.8304 1.7694 10.8297 1.16372C10.8293 0.721573 10.6293 0.519918 10.1933 0.519918C9.30539 0.519562 8.4171 0.523124 7.52916 0.515286C7.42647 0.514217 7.31455 0.467901 7.22465 0.41339C7.08892 0.330732 6.96954 0.220998 6.84162 0.125158C6.62701 -0.0355249 6.34986 -0.0490636 6.15693 0.136915C5.83252 0.44973 5.46654 0.549133 5.01884 0.528825C4.28014 0.495334 3.53895 0.519562 2.79882 0.519918C2.37457 0.520274 2.17168 0.725849 2.17133 1.15695C2.17097 1.76833 2.16849 2.38006 2.17382 2.99144C2.17488 3.1051 2.13793 3.176 2.04768 3.24298C1.50618 3.64664 0.970712 4.05851 0.429208 4.46217C0.143533 4.67487 -0.00179195 4.93888 -0.000370979 5.30834C0.00780106 7.64163 0.0038929 9.97456 0.0038929 12.3078C0.0038929 12.8106 0.187593 12.9948 0.688234 12.9948C2.63075 12.9948 4.57292 12.9948 6.51473 12.9948ZM10.2825 1.06966C10.2893 1.11348 10.2957 1.13664 10.2957 1.1598C10.2964 2.96401 10.2978 4.76857 10.2925 6.57278C10.2921 6.63549 10.242 6.71779 10.1898 6.75698C9.45001 7.31064 8.70455 7.85647 7.96478 8.41013C7.86707 8.48316 7.80489 8.46749 7.71855 8.39908C7.43536 8.17463 7.14613 7.95801 6.86045 7.73676C6.62737 7.55612 6.379 7.5547 6.14449 7.73604C5.86308 7.95302 5.57705 8.16465 5.30203 8.38911C5.19508 8.4764 5.12331 8.47426 5.01316 8.3916C4.2979 7.85468 3.57803 7.32347 2.85603 6.79617C2.75476 6.72207 2.71425 6.64475 2.71461 6.51792C2.71887 4.76679 2.7171 3.01603 2.71781 1.2649C2.71781 1.2022 2.7242 1.13949 2.72811 1.0693C5.25371 1.06966 7.76083 1.06966 10.2825 1.06966ZM1.77906 11.906C1.76662 11.8899 1.75419 11.8735 1.7414 11.8575C1.76982 11.8479 1.80287 11.8447 1.82561 11.8276C3.35063 10.7014 4.8753 9.57446 6.39783 8.44469C6.48204 8.38234 6.5364 8.39374 6.61422 8.45146C8.12254 9.57018 9.633 10.6868 11.1438 11.8023C11.1793 11.8283 11.2266 11.8383 11.2682 11.8554C11.2511 11.8721 11.2341 11.8892 11.217 11.906C8.07138 11.906 4.9254 11.906 1.77906 11.906ZM1.10005 6.27279C2.27473 7.17454 3.41743 8.05171 4.57541 8.94063C3.40677 9.8349 2.26371 10.7096 1.10005 11.5999C1.10005 9.80889 1.10005 8.06062 1.10005 6.27279ZM8.42669 8.93921C9.58716 8.04993 10.7299 7.17419 11.8917 6.28384C11.8917 8.06632 11.8917 9.81031 11.8917 11.591C10.7242 10.6975 9.58503 9.82563 8.42669 8.93921ZM10.8471 6.27386C10.8471 5.61261 10.8471 4.99553 10.8471 4.3503C11.1623 4.58117 11.4536 4.79351 11.7439 5.00693C11.9809 5.18115 11.9824 5.43518 11.7482 5.60833C11.6196 5.70346 11.4917 5.79894 11.363 5.89407C11.1985 6.01556 11.0337 6.1367 10.8471 6.27386ZM2.16174 6.27814C1.82383 6.02874 1.52216 5.80072 1.2141 5.58196C1.12208 5.51677 1.08939 5.44622 1.08583 5.33328C1.0805 5.18186 1.12066 5.0821 1.25461 4.99766C1.45465 4.8719 1.638 4.72012 1.82951 4.58046C1.9322 4.50564 2.03666 4.43403 2.16174 4.34602C2.16174 4.99873 2.16174 5.61795 2.16174 6.27814Z" fill="#00589F"/>
<path d="M9.19531 6.47859C9.19531 6.2976 9.19531 6.13335 9.19531 5.95557C7.39705 5.95557 5.60732 5.95557 3.80799 5.95557C3.80799 6.13157 3.80799 6.29973 3.80799 6.47859C5.6027 6.47859 7.38746 6.47859 9.19531 6.47859Z" fill="#00589F"/>
<path d="M3.81403 3.21758C5.60945 3.21758 7.38995 3.21758 9.1875 3.21758C9.1875 3.0462 9.1875 2.87946 9.1875 2.70239C7.39848 2.70239 5.61371 2.70239 3.81403 2.70239C3.81403 2.87163 3.81403 3.043 3.81403 3.21758Z" fill="#00589F"/>
<path d="M3.80924 4.33167C3.80924 4.50339 3.80924 4.66693 3.80924 4.84471C5.59719 4.84471 7.38551 4.84471 9.18945 4.84471C9.18945 4.67904 9.18945 4.51194 9.18945 4.33167C7.39581 4.33167 5.6075 4.33167 3.80924 4.33167Z" fill="#00589F"/>
</g>
<defs>
<clipPath id="clip0">
<rect width="13" height="13" fill="white" transform="matrix(-1 0 0 1 13 0)"/>
</clipPath>
</defs>
</svg>
