<svg width="16" height="16" viewBox="0 0 16 16" fill="none" xmlns="http://www.w3.org/2000/svg">
<g clip-path="url(#clip0)">
<path d="M2.62971 12.5013C2.25466 12.5013 1.89379 12.4995 1.53291 12.502C1.28836 12.5036 1.05501 12.4579 0.838804 12.3439C0.312685 12.0659 0.0130575 11.6271 0.00940069 11.0333C-0.00248385 9.1823 0.00254422 7.33126 0.006201 5.48022C0.00780084 4.66817 0.686591 4.00286 1.50022 4.00217C1.86956 4.00172 2.23867 4.00217 2.62857 4.00217C2.62857 3.95258 2.62857 3.90915 2.62857 3.8655C2.6288 2.76479 2.62903 1.66409 2.62971 0.563382C2.62994 0.203413 2.82992 0.0041156 3.18692 0.0041156C6.39003 0.00434415 9.59337 0.00708678 12.7965 1.66985e-06C13.1183 -0.000683986 13.3845 0.209812 13.3802 0.575724C13.3676 1.66866 13.3763 2.76182 13.3768 3.85499C13.3768 3.89955 13.3768 3.94412 13.3768 4.00309C13.5333 4.00309 13.6768 4.00126 13.8204 4.00354C14.1246 4.00857 14.4322 3.98937 14.7325 4.02708C15.4447 4.11668 15.9971 4.75365 15.9987 5.46993C16.0026 7.32486 16.0032 9.17978 15.9991 11.0345C15.9973 11.8326 15.3174 12.4986 14.5172 12.5011C14.1822 12.502 13.8469 12.5013 13.5118 12.5013C13.4709 12.5013 13.4298 12.5013 13.3756 12.5013C13.3756 12.5578 13.3756 12.6021 13.3756 12.6467C13.3756 13.5799 13.3758 14.513 13.3756 15.4462C13.3756 15.7982 13.1729 16.0002 12.8244 16.0002C9.61736 15.9998 6.41037 15.9998 3.20337 16C2.82764 16 2.62994 15.8064 2.62994 15.4341C2.62994 14.5085 2.62994 13.5831 2.62994 12.6574C2.62971 12.6119 2.62971 12.5667 2.62971 12.5013ZM13.3756 11.4982C13.7568 11.4982 14.1218 11.5012 14.4868 11.4973C14.7858 11.4941 14.9953 11.2809 14.9956 10.9812C14.9969 9.17201 14.9972 7.3628 14.9963 5.55358C14.996 5.20893 14.7929 5.00871 14.4477 5.00734C14.0782 5.00574 13.7088 5.00689 13.3393 5.00689C9.42378 5.00689 5.50851 5.00689 1.59302 5.00689C1.20151 5.00689 1.00862 5.19818 1.00862 5.58627C1.00862 7.37651 1.00907 9.16653 1.00953 10.9568C1.00976 11.2863 1.2134 11.4952 1.53999 11.4978C1.87139 11.5003 2.20278 11.4987 2.53418 11.4982C2.56321 11.4982 2.59223 11.4925 2.62857 11.4886C2.62857 11.4443 2.62857 11.4068 2.62857 11.3693C2.62857 10.4208 2.62788 9.47256 2.62903 8.52407C2.62948 8.21507 2.83998 8.00046 3.14006 8.00023C4.06569 7.99954 4.99108 8 5.9167 8C8.21727 8 10.5176 8.00046 12.8182 7.99977C13.1752 7.99954 13.3765 8.19724 13.3765 8.55721C13.3765 9.3304 13.3758 10.1036 13.3756 10.8768C13.3754 11.0781 13.3756 11.2795 13.3756 11.4982ZM12.3634 14.9909C12.3634 12.9913 12.3634 11.0023 12.3634 9.01111C9.45167 9.01111 6.54818 9.01111 3.64218 9.01111C3.64218 11.0077 3.64218 12.9966 3.64218 14.9909C6.55115 14.9909 9.45144 14.9909 12.3634 14.9909ZM3.64058 3.99257C6.5587 3.99257 9.4615 3.99257 12.3627 3.99257C12.3627 2.9938 12.3627 2.00554 12.3627 1.01569C9.45075 1.01569 6.5475 1.01569 3.64058 1.01569C3.64058 2.01194 3.64058 3.0002 3.64058 3.99257Z" fill="#00589F"/>
<path d="M13.4913 7.00074C13.2085 6.99914 12.9971 6.78453 12.998 6.49998C12.999 6.21749 13.2136 6.00334 13.4961 6.00311C13.7831 6.00266 13.9986 6.22161 13.9954 6.51027C13.9922 6.79253 13.7767 7.00234 13.4913 7.00074Z" fill="#00589F"/>
<path d="M8.01856 10.0101C8.97823 10.0101 9.93791 10.0094 10.8976 10.0108C11.1446 10.0112 11.3435 10.1861 11.3807 10.4274C11.4184 10.6731 11.2859 10.909 11.0619 10.9835C11.0016 11.0036 10.9353 11.0144 10.872 11.0144C8.96406 11.016 7.05637 11.016 5.14845 11.0155C4.89956 11.0155 4.7126 10.872 4.65158 10.6404C4.59376 10.4206 4.68792 10.1776 4.88996 10.0736C4.97041 10.0323 5.0712 10.0133 5.16284 10.0128C6.11452 10.0083 7.06665 10.0099 8.01856 10.0101Z" fill="#00589F"/>
<path d="M8.00507 13.0105C7.06094 13.0105 6.11658 13.0108 5.17244 13.0105C4.85476 13.0105 4.63787 12.8094 4.63672 12.5157C4.63558 12.2129 4.8527 12.0047 5.17244 12.0047C7.06848 12.0045 8.96475 12.0042 10.8608 12.0049C11.1385 12.0049 11.3478 12.18 11.3816 12.4357C11.4162 12.6958 11.2655 12.9312 11.0187 12.995C10.9645 13.0089 10.9058 13.0101 10.8491 13.0101C9.90111 13.0108 8.95309 13.0103 8.00507 13.0105Z" fill="#00589F"/>
</g>
<defs>
<clipPath id="clip0">
<rect width="16" height="16" fill="white"/>
</clipPath>
</defs>
</svg>
