<svg width="22" height="20" viewBox="0 0 22 20" fill="blue" xmlns="http://www.w3.org/2000/svg">
<path d="M10.5614 3.65328L11 4.45486L11.4386 3.65329C11.7823 3.02524 12.358 2.17812 13.2091 1.51992L12.9032 1.12441L13.2091 1.51992C14.0883 0.839971 15.0757 0.5 16.1562 0.5C19.1741 0.5 21.5 2.96206 21.5 6.33849C21.5 8.13662 20.785 9.67113 19.4548 11.2762C18.112 12.8966 16.1808 14.5445 13.7971 16.5759L14.1214 16.9564L13.7971 16.5759C12.9911 17.2627 12.0755 18.043 11.1234 18.8756L11.1232 18.8758C11.0895 18.9053 11.0459 18.9219 11 18.9219C10.9541 18.9219 10.9106 18.9053 10.8769 18.8758L10.8766 18.8756C9.92505 18.0435 9.00985 17.2635 8.20463 16.5773L8.20345 16.5763L7.87914 16.9568L8.20344 16.5763C5.81947 14.5447 3.88814 12.8967 2.54522 11.2763C1.21497 9.67112 0.5 8.13662 0.5 6.33849C0.5 2.96206 2.82592 0.5 5.84375 0.5C6.92428 0.5 7.91171 0.839971 8.7909 1.51992L9.09679 1.12441L8.7909 1.51992C9.64197 2.17812 10.2177 3.02521 10.5614 3.65328Z" stroke="#00589F"/>
</svg>
