<svg width="217" height="47" viewBox="0 0 217 47" fill="none" xmlns="http://www.w3.org/2000/svg">
<path d="M10.4532 14.5763L16.2775 22.1188L25.0267 12.1469L32.0718 19.435L41.7874 5.10042L46.4036 10.8241V0H0V23.4289L10.4532 14.5763Z" fill="#00589F"/>
<path d="M41.7874 9.95911V32.3195L25.2683 16.5222L29.4012 27.4608L23.081 23.327L29.4012 36.9366L10.4532 20.4143L0 27.1428V46.4125H46.4036V16.4841L41.7874 9.95911Z" fill="black"/>
<path d="M53.131 22.3095V18.5573H55.8651V3.85386H53.131V0.101685H63.2663C65.5172 0.101685 67.1831 0.228877 68.2767 0.495981C69.3704 0.763086 70.3241 1.38633 71.1126 2.39115C71.9137 3.39597 72.3079 4.57886 72.3079 5.9271C72.3079 8.08937 71.2652 9.61568 69.1796 10.506C71.8374 11.4981 73.1727 13.2661 73.1727 15.8227C73.1727 17.2854 72.7657 18.5446 71.9392 19.6003C71.1126 20.6433 70.0443 21.3555 68.7472 21.7371C67.4374 22.1187 65.6189 22.3095 63.2663 22.3095H53.131ZM61.6385 8.86525H63.2663C64.3981 8.86525 65.2247 8.67446 65.7588 8.29288C66.2929 7.9113 66.56 7.23718 66.56 6.27052C66.56 5.39289 66.3056 4.76965 65.7842 4.40079C65.2628 4.04465 64.3599 3.85386 63.0755 3.85386H61.6385V8.86525ZM61.6385 18.5573H63.2663C64.7414 18.5573 65.7715 18.3411 66.3565 17.9214C66.9415 17.5016 67.2339 16.7512 67.2339 15.67C67.2339 14.538 66.916 13.7494 66.2802 13.3043C65.6443 12.8464 64.6397 12.6301 63.2536 12.6301H61.6258V18.5573H61.6385Z" fill="black"/>
<path d="M76.0718 22.3095V18.7481H78.5007V3.66307H76.0718V0.101685H83.4221V18.7481H85.6348V22.3095H76.0718Z" fill="black"/>
<path d="M105.04 18.7482V22.3096H97.6137V21.0885C96.2784 22.0552 94.8796 22.5385 93.4044 22.5385C91.8784 22.5385 90.5558 22.1061 89.4368 21.2284C88.3304 20.3508 87.7709 19.1806 87.7709 17.7179C87.7709 16.2425 88.3558 14.996 89.5258 14.0039C90.6957 12.9991 92.209 12.503 94.053 12.503C95.083 12.503 96.2657 12.7701 97.6137 13.2789V12.3377C97.6137 11.5491 97.3466 10.9004 96.8125 10.4043C96.2784 9.89558 95.5663 9.64119 94.6761 9.64119C93.5697 9.64119 92.6287 10.0482 91.8402 10.8495L87.8599 10.1372C89.0044 7.69514 91.5096 6.48682 95.3501 6.48682C96.8379 6.48682 98.0715 6.65217 99.0507 6.99559C100.03 7.32629 100.755 7.75874 101.238 8.29295C101.721 8.82716 102.052 9.41224 102.255 10.0355C102.446 10.6715 102.548 11.7017 102.548 13.1263V18.7609H105.04V18.7482ZM97.6137 16.5986C96.4183 15.8482 95.4645 15.4793 94.7524 15.4793C94.1928 15.4793 93.6715 15.6447 93.2137 15.9754C92.7558 16.3061 92.5142 16.7894 92.5142 17.4127C92.5142 17.9723 92.705 18.4556 93.0738 18.8626C93.4426 19.2697 93.9258 19.4732 94.5108 19.4732C95.4264 19.4732 96.4564 18.939 97.6009 17.8578V16.5986H97.6137Z" fill="black"/>
<path d="M122.628 6.72848V12.9991H119.118C118.317 11.2693 117.071 10.4171 115.367 10.4171C114.286 10.4171 113.421 10.7732 112.773 11.4982C112.124 12.2105 111.806 13.1771 111.806 14.3855C111.806 15.8482 112.15 16.9166 112.824 17.6162C113.51 18.3157 114.337 18.6591 115.329 18.6591C116.117 18.6591 116.855 18.4302 117.567 17.985C118.266 17.5271 118.839 16.9293 119.258 16.1916L123.086 17.8705C121.662 20.9868 119.157 22.5385 115.583 22.5385C112.887 22.5385 110.738 21.8008 109.148 20.3381C107.546 18.8754 106.745 16.9039 106.745 14.4491C106.745 11.9943 107.533 10.0482 109.098 8.63637C110.674 7.19909 112.493 6.48682 114.579 6.48682C116.244 6.48682 117.809 6.99559 119.258 8.00041V6.72848H122.628Z" fill="black"/>
<path d="M124.522 22.3095V18.7481H127.015V3.66307H124.522V0.101685H131.923V14.131L137.226 9.80647H133.971V6.85561H143.305V9.98454H141.754L137.239 13.8385L141.359 18.7481H143.496V22.3095H138.752L131.923 14.131V18.9262H133.793V22.3095H124.522Z" fill="black"/>
<path d="M156.277 18.7483V22.3097H145.404V18.7483H148.265V10.4172H145.582V6.85578H152.779V10.786C153.059 9.65401 153.682 8.68735 154.674 7.8606C155.653 7.03385 156.823 6.62683 158.159 6.62683C158.387 6.62683 158.642 6.62683 158.96 6.63955V11.2948C157.714 11.2948 156.696 11.4347 155.908 11.7145C155.119 11.9944 154.471 12.5922 153.962 13.5334C153.453 14.4746 153.199 15.5812 153.199 16.8531V18.7483H156.277Z" fill="black"/>
<path d="M168.548 22.6657C166.272 22.6657 164.352 21.9407 162.775 20.5034C161.211 19.0662 160.422 17.082 160.422 14.5763C160.422 12.0706 161.211 10.0864 162.775 8.64909C164.339 7.21181 166.272 6.48682 168.548 6.48682C170.837 6.48682 172.757 7.21181 174.322 8.64909C175.886 10.0864 176.662 12.0706 176.662 14.5763C176.662 17.0565 175.886 19.028 174.334 20.478C172.796 21.928 170.863 22.6657 168.548 22.6657ZM168.523 18.8245C169.438 18.8245 170.176 18.4684 170.748 17.7688C171.32 17.0692 171.6 15.9627 171.6 14.4618C171.6 13.139 171.32 12.1087 170.774 11.371C170.214 10.6333 169.464 10.2644 168.523 10.2644C166.488 10.2644 165.471 11.7271 165.471 14.6653C165.471 15.8736 165.725 16.8657 166.234 17.6416C166.742 18.4429 167.505 18.8245 168.523 18.8245Z" fill="black"/>
<path d="M195.038 6.72846V12.999H191.528C190.727 11.2692 189.48 10.417 187.776 10.417C186.695 10.417 185.831 10.7732 185.182 11.4982C184.533 12.2105 184.216 13.1771 184.216 14.3854C184.216 15.8482 184.559 16.9166 185.233 17.6161C185.92 18.3157 186.746 18.6591 187.738 18.6591C188.527 18.6591 189.264 18.4302 189.976 17.985C190.676 17.5271 191.248 16.9293 191.668 16.1916L195.495 17.8705C194.071 20.9867 191.566 22.5385 187.992 22.5385C185.296 22.5385 183.147 21.8008 181.558 20.3381C179.955 18.8753 179.154 16.9039 179.154 14.449C179.154 11.9942 179.943 10.0482 181.507 8.63635C183.071 7.21179 184.902 6.49951 186.988 6.49951C188.654 6.49951 190.218 7.00828 191.668 8.0131V6.74118H195.038V6.72846Z" fill="black"/>
<path d="M196.945 22.3095V18.7481H199.437V3.66307H196.945V0.101685H204.346V14.131L209.649 9.80647H206.393V6.85561H215.728V9.98454H214.176L209.662 13.8385L213.782 18.7481H215.918V22.3095H211.175L204.346 14.131V18.9262H206.215V22.3095H196.945Z" fill="black"/>
<path d="M59.2354 40.4344L61.1811 41.0576C60.3672 42.3423 59.0828 42.991 57.3406 42.991C55.9544 42.991 54.8735 42.6221 54.0978 41.8971C53.3221 41.1721 52.9278 40.2055 52.9278 39.0099C52.9278 37.8015 53.3348 36.784 54.1359 35.9699C54.9371 35.1559 55.9544 34.7489 57.2007 34.7489C58.1036 34.7489 58.8793 34.9778 59.5406 35.4357C60.2019 35.8936 60.647 36.4533 60.9013 37.1401C61.1556 37.8142 61.2828 38.5774 61.2828 39.4041H55.4203C55.4585 40.1164 55.6874 40.6252 56.0943 40.9305C56.514 41.223 56.9464 41.3756 57.4042 41.3756C58.0146 41.3629 58.625 41.0449 59.2354 40.4344ZM58.7521 37.9923C58.6886 37.5471 58.5232 37.1783 58.2308 36.873C57.951 36.5678 57.5568 36.4151 57.0608 36.4151C56.1452 36.4151 55.5984 36.9493 55.4458 38.005H58.7521V37.9923Z" fill="#00589F"/>
<path d="M62.4399 39.9638V37.7761H66.9798V39.9766H62.4399V39.9638Z" fill="#00589F"/>
<path d="M73.0074 44.5427V46.3616H67.59V44.5427H68.9126V36.7458H67.8062V34.927H71.4305V35.9191C72.1299 35.1814 72.9056 34.8125 73.7704 34.8125C74.8131 34.8125 75.627 35.2322 76.2247 36.059C76.8224 36.8857 77.1276 37.8524 77.1276 38.9463C77.1276 40.1164 76.8224 41.0831 76.1993 41.8462C75.5762 42.6094 74.7623 42.991 73.7322 42.991C72.8929 42.991 72.1299 42.6603 71.4305 42.0116V44.5554H73.0074V44.5427ZM74.5588 38.8954C74.5588 38.2085 74.4189 37.687 74.1264 37.3563C73.8467 37.0129 73.4652 36.8476 72.9946 36.8476C72.5241 36.8476 72.1426 37.0256 71.8501 37.3691C71.5576 37.7125 71.405 38.2467 71.405 38.9335C71.405 39.5568 71.5576 40.0528 71.8501 40.4344C72.1426 40.816 72.5368 41.0068 73.0201 41.0068C73.4652 41.0068 73.834 40.8414 74.1264 40.498C74.4062 40.1419 74.5588 39.6204 74.5588 38.8954Z" fill="#00589F"/>
<path d="M87.1999 40.9941V42.8129H83.423V42.1897C82.749 42.6857 82.0241 42.9274 81.2738 42.9274C80.4981 42.9274 79.8241 42.7112 79.2519 42.266C78.6796 41.8208 78.3998 41.223 78.3998 40.4726C78.3998 39.7221 78.6923 39.0862 79.29 38.5774C79.8877 38.0686 80.6507 37.8142 81.6045 37.8142C82.1259 37.8142 82.7363 37.9414 83.423 38.2085V37.7252C83.423 37.3182 83.2831 37.0002 83.016 36.7331C82.749 36.4787 82.3802 36.3515 81.9224 36.3515C81.3628 36.3515 80.8796 36.555 80.4727 36.9748L78.4507 36.6059C79.0357 35.3594 80.3074 34.7489 82.2657 34.7489C83.0287 34.7489 83.6519 34.8379 84.1478 35.0033C84.6438 35.1686 85.0126 35.3976 85.2669 35.6647C85.5085 35.9318 85.6865 36.2371 85.7883 36.555C85.89 36.873 85.9409 37.4072 85.9409 38.1322V41.0068H87.1999V40.9941ZM83.423 39.9002C82.8126 39.5186 82.3293 39.3278 81.9732 39.3278C81.6808 39.3278 81.4264 39.4169 81.1848 39.5822C80.9432 39.7476 80.8287 39.9892 80.8287 40.3199C80.8287 40.6125 80.9178 40.8541 81.1085 41.0576C81.2993 41.2612 81.5409 41.3629 81.8461 41.3629C82.3166 41.3629 82.838 41.0831 83.423 40.5362V39.9002Z" fill="#00589F"/>
<path d="M88.8261 46.3616V44.5428H90.3394L90.8608 43.1436L87.9995 36.7459H86.855V34.927H91.5729V36.7459H90.6446L91.9544 40.2945L93.3532 36.7459H92.3232V34.927H96.4562V36.7459H95.3371L91.5602 46.3616H88.8261Z" fill="#00589F"/>
<path d="M97.144 36.7458V34.927H100.959V35.5757C101.811 35.0669 102.663 34.8125 103.515 34.8125C104.532 34.8125 105.321 35.1686 105.868 35.8809C106.885 35.1686 107.941 34.8125 109.047 34.8125C109.708 34.8125 110.23 34.927 110.649 35.1686C111.056 35.4103 111.336 35.7283 111.489 36.1353C111.641 36.5423 111.717 37.1528 111.717 37.9796V40.9813H113.015V42.8002H109.2V38.1831C109.2 37.3564 108.843 36.9493 108.131 36.9493C107.572 36.9493 106.974 37.1274 106.313 37.4835V40.9813H107.61V42.8002H103.795V38.2594C103.795 37.3818 103.452 36.9493 102.765 36.9493C102.231 36.9493 101.62 37.1274 100.934 37.4835V40.9813H102.231V42.8002H97.1186V40.9813H98.4157V36.7331H97.144V36.7458Z" fill="#00589F"/>
<path d="M119.97 40.4344L121.916 41.0576C121.102 42.3423 119.817 42.991 118.075 42.991C116.689 42.991 115.608 42.6221 114.832 41.8971C114.057 41.1594 113.662 40.2055 113.662 39.0099C113.662 37.8015 114.069 36.784 114.871 35.9699C115.672 35.1559 116.689 34.7489 117.935 34.7489C118.838 34.7489 119.614 34.9778 120.275 35.4357C120.937 35.8936 121.382 36.4533 121.636 37.1401C121.89 37.8142 122.017 38.5774 122.017 39.4041H116.155C116.193 40.1164 116.422 40.6252 116.829 40.9305C117.249 41.223 117.681 41.3756 118.139 41.3756C118.749 41.3629 119.36 41.0449 119.97 40.4344ZM119.487 37.9923C119.423 37.5471 119.258 37.1783 118.965 36.873C118.686 36.5678 118.291 36.4151 117.795 36.4151C116.88 36.4151 116.333 36.9493 116.18 38.005H119.487V37.9923Z" fill="#00589F"/>
<path d="M123.047 36.7458V34.927H126.761V35.6647C127.524 35.0923 128.287 34.8125 129.075 34.8125C130.665 34.8125 131.453 35.83 131.453 37.8524V40.9941H132.636V42.8129H128.935V38.0432C128.935 37.6107 128.872 37.3182 128.757 37.1656C128.643 37.0129 128.452 36.9239 128.185 36.9239C127.714 36.9239 127.244 37.0892 126.748 37.4327V40.9813H127.956V42.8002H123.035V40.9813H124.243V36.7331H123.047V36.7458Z" fill="#00589F"/>
<path d="M133.171 36.746V34.9271H134.175V33.6933L136.693 31.8872V34.9271H138.143V36.746H136.693V40.1547C136.693 40.46 136.731 40.6762 136.808 40.778C136.884 40.8797 137.062 40.9306 137.354 40.9306C137.583 40.9306 137.85 40.8797 138.143 40.7652V42.5078C137.494 42.7749 136.871 42.9021 136.248 42.9021C134.875 42.9021 134.188 42.2152 134.188 40.8543V36.7332H133.171V36.746Z" fill="#00589F"/>
<path d="M143.98 42.8005V40.0913H145.811C145.824 40.4601 146.002 40.7527 146.32 40.9689C146.65 41.1851 147.044 41.2996 147.528 41.2996C147.935 41.2996 148.265 41.2233 148.494 41.0834C148.723 40.9435 148.838 40.7527 148.838 40.5364C148.838 40.3329 148.736 40.1676 148.52 40.0531C148.303 39.9386 147.896 39.8369 147.273 39.7224C146.002 39.5189 145.086 39.2009 144.514 38.7812C143.954 38.3614 143.662 37.8018 143.662 37.115C143.662 36.4663 143.929 35.9193 144.463 35.4742C144.997 35.029 145.696 34.8 146.574 34.8C147.286 34.8 147.947 34.9272 148.57 35.1943V34.9272H150.364V37.2167H148.57C148.405 36.6698 147.833 36.39 146.841 36.39C146.116 36.39 145.747 36.5935 145.747 36.9878C145.747 37.1404 145.824 37.2549 145.976 37.3312C146.129 37.4075 146.51 37.5093 147.121 37.611C148.087 37.7764 148.812 37.9417 149.295 38.1198C149.779 38.2851 150.16 38.5649 150.453 38.9592C150.745 39.3408 150.885 39.8114 150.885 40.3584C150.885 41.1342 150.605 41.7575 150.058 42.2535C149.512 42.7496 148.723 42.9913 147.718 42.9913C146.777 42.9913 146.142 42.8005 145.786 42.4189V42.8132H143.98V42.8005Z" fill="#00589F"/>
<path d="M156.01 42.991C154.853 42.991 153.874 42.6222 153.072 41.8845C152.271 41.1467 151.877 40.1419 151.877 38.8573C151.877 37.5726 152.271 36.5678 153.072 35.8301C153.874 35.0924 154.853 34.7235 156.01 34.7235C157.18 34.7235 158.159 35.0924 158.948 35.8301C159.749 36.5678 160.143 37.5726 160.143 38.8573C160.143 40.1165 159.749 41.1213 158.96 41.8717C158.185 42.6095 157.193 42.991 156.01 42.991ZM156.01 41.0323C156.481 41.0323 156.849 40.8542 157.142 40.4981C157.434 40.1419 157.574 39.5823 157.574 38.8191C157.574 38.145 157.434 37.6235 157.155 37.2419C156.875 36.8603 156.493 36.6823 156.01 36.6823C154.98 36.6823 154.459 37.4327 154.459 38.9209C154.459 39.5314 154.586 40.0402 154.84 40.4345C155.094 40.8288 155.489 41.0323 156.01 41.0323Z" fill="#00589F"/>
<path d="M161.021 42.8002V40.9814H162.254V33.299H161.021V31.4801H164.772V40.9814H165.904V42.8002H161.021Z" fill="#00589F"/>
<path d="M176.179 40.9942V42.813H172.402V42.1389C171.652 42.6604 170.889 42.9275 170.113 42.9275C169.35 42.9275 168.765 42.7113 168.333 42.2915C167.9 41.8591 167.684 41.2613 167.684 40.4854V36.7587H166.502V34.9398H170.189V39.8494C170.189 40.2437 170.253 40.5109 170.367 40.6508C170.482 40.7907 170.698 40.867 171.016 40.867C171.436 40.867 171.906 40.6762 172.402 40.3073V36.7587H171.194V34.9398H174.92V40.9942H176.179Z" fill="#00589F"/>
<path d="M176.776 36.746V34.9271H177.781V33.6933L180.299 31.8872V34.9271H181.749V36.746H180.299V40.1547C180.299 40.46 180.337 40.6762 180.413 40.778C180.49 40.8797 180.668 40.9306 180.96 40.9306C181.189 40.9306 181.456 40.8797 181.749 40.7652V42.5078C181.1 42.7749 180.477 42.9021 179.854 42.9021C178.48 42.9021 177.794 42.2152 177.794 40.8543V36.7332H176.776V36.746Z" fill="#00589F"/>
<path d="M183.402 36.746V34.9271H187.115V40.9815H188.285V42.8003H183.402V40.9815H184.597V36.7332H183.402V36.746ZM184.495 32.6758C184.495 32.2942 184.635 31.9762 184.902 31.7091C185.169 31.442 185.5 31.3021 185.869 31.3021C186.25 31.3021 186.581 31.442 186.848 31.7091C187.115 31.9762 187.242 32.3069 187.242 32.6758C187.242 33.0447 187.102 33.3754 186.835 33.6425C186.568 33.9096 186.238 34.0495 185.869 34.0495C185.5 34.0495 185.169 33.9096 184.902 33.6425C184.635 33.3754 184.495 33.0447 184.495 32.6758Z" fill="#00589F"/>
<path d="M193.232 42.991C192.075 42.991 191.096 42.6222 190.295 41.8845C189.493 41.1467 189.099 40.1419 189.099 38.8573C189.099 37.5726 189.493 36.5678 190.295 35.8301C191.096 35.0924 192.075 34.7235 193.232 34.7235C194.402 34.7235 195.381 35.0924 196.17 35.8301C196.971 36.5678 197.365 37.5726 197.365 38.8573C197.365 40.1165 196.971 41.1213 196.182 41.8717C195.407 42.6095 194.415 42.991 193.232 42.991ZM193.232 41.0323C193.703 41.0323 194.072 40.8542 194.364 40.4981C194.656 40.1419 194.796 39.5823 194.796 38.8191C194.796 38.145 194.656 37.6235 194.377 37.2419C194.097 36.8603 193.715 36.6823 193.232 36.6823C192.202 36.6823 191.681 37.4327 191.681 38.9209C191.681 39.5314 191.808 40.0402 192.062 40.4345C192.317 40.8288 192.711 41.0323 193.232 41.0323Z" fill="#00589F"/>
<path d="M198.217 36.7458V34.927H201.93V35.6647C202.693 35.0923 203.456 34.8125 204.244 34.8125C205.834 34.8125 206.622 35.83 206.622 37.8524V40.9941H207.805V42.8129H204.104V38.0432C204.104 37.6107 204.041 37.3182 203.926 37.1656C203.812 37.0129 203.621 36.9239 203.354 36.9239C202.884 36.9239 202.413 37.0892 201.917 37.4327V40.9813H203.125V42.8002H198.204V40.9813H199.412V36.7331H198.217V36.7458Z" fill="#00589F"/>
<path d="M209.127 42.8005V40.0913H210.959C210.971 40.4601 211.149 40.7527 211.467 40.9689C211.798 41.1851 212.192 41.2996 212.675 41.2996C213.082 41.2996 213.413 41.2233 213.642 41.0834C213.871 40.9435 213.985 40.7527 213.985 40.5364C213.985 40.3329 213.883 40.1676 213.667 40.0531C213.451 39.9386 213.044 39.8369 212.421 39.7224C211.149 39.5189 210.234 39.2009 209.661 38.7812C209.102 38.3614 208.809 37.8018 208.809 37.115C208.809 36.4663 209.076 35.9193 209.611 35.4742C210.145 35.029 210.844 34.8 211.722 34.8C212.434 34.8 213.095 34.9272 213.718 35.1943V34.9272H215.511V37.2167H213.718C213.553 36.6698 212.981 36.39 211.989 36.39C211.264 36.39 210.895 36.5935 210.895 36.9878C210.895 37.1404 210.971 37.2549 211.124 37.3312C211.276 37.4075 211.658 37.5093 212.268 37.611C213.235 37.7764 213.96 37.9417 214.443 38.1198C214.926 38.2851 215.308 38.5649 215.6 38.9592C215.893 39.3408 216.033 39.8114 216.033 40.3584C216.033 41.1342 215.753 41.7575 215.206 42.2535C214.659 42.7496 213.871 42.9913 212.866 42.9913C211.925 42.9913 211.289 42.8005 210.933 42.4189V42.8132H209.127V42.8005Z" fill="#00589F"/>
</svg>
