<svg width="14" height="18" viewBox="0 0 14 18" fill="none" xmlns="http://www.w3.org/2000/svg">
<path d="M10.2756 0.802724C9.49366 0.39737 8.66986 0.129169 7.7906 0.0427431C7.74595 0.038046 7.70366 0.0145608 7.65996 0C7.22291 0 6.78587 0 6.34835 0C5.91601 0.0915923 5.47238 0.147017 5.05367 0.280883C2.34493 1.14749 0.686978 2.97792 0.12117 5.76891C-0.183822 7.27384 0.114121 8.71019 0.710945 10.1C1.45204 11.8243 2.53008 13.3283 3.74253 14.7435C4.73928 15.9075 5.82484 16.9831 7.00486 18C7.25346 17.7797 7.50112 17.5688 7.73985 17.3476C9.4744 15.7388 11.059 14.0009 12.311 11.9817C13.0079 10.8572 13.5718 9.67449 13.8519 8.36872C14.4934 5.37764 13.0027 2.217 10.2756 0.802724ZM7.01097 9.98356C5.36101 9.98544 4.0151 8.65242 4.00711 7.00845C3.99865 5.35885 5.35678 4.00094 7.00909 4.00611C8.6567 4.01127 10.0007 5.35369 10.0017 6.9953C10.0026 8.63739 8.65764 9.98168 7.01097 9.98356Z" fill="#00589F"/>
</svg>
