<svg width="11" height="14" viewBox="0 0 11 14" fill="none" xmlns="http://www.w3.org/2000/svg">
<g clip-path="url(#clip0)">
<path d="M7.51414 13.9997C6.358 14.0034 5.49581 13.6327 4.72326 13.0121C4.03078 12.456 3.46445 11.7783 2.95127 11.0522C1.91403 9.58397 1.05354 8.01593 0.449211 6.30775C0.173624 5.52932 -0.00825044 4.73052 0.000288276 3.89428C0.0109617 2.84082 0.377913 1.93188 1.05012 1.14622C1.35858 0.786012 1.6869 0.444201 2.09868 0.208591C2.25963 0.116405 2.44321 0.0557504 2.62381 0.0130515C2.82063 -0.0335889 2.99759 0.044364 3.13101 0.20027C3.20316 0.284573 3.27019 0.377416 3.32014 0.476828C3.75113 1.33256 4.1294 2.21106 4.3926 3.13818C4.41331 3.21153 4.42996 3.28664 4.44191 3.36196C4.48418 3.62604 4.41075 3.82158 4.17124 3.93413C3.90504 4.05894 3.62028 4.14259 3.34277 4.24156C3.25909 4.27134 3.17242 4.29236 3.08725 4.31798C2.67248 4.44323 2.52433 4.69592 2.62295 5.12926C2.77025 5.77828 3.01019 6.39315 3.29388 6.9905C3.80194 8.0595 4.39794 9.07202 5.15426 9.97789C5.32268 10.1798 5.50285 10.374 5.69582 10.5509C5.99361 10.8238 6.26386 10.8095 6.55503 10.5299C6.73947 10.3528 6.91686 10.1682 7.10557 9.99607C7.21657 9.8949 7.33718 9.80206 7.46419 9.72345C7.65781 9.60389 7.86252 9.61265 8.02796 9.77031C8.24613 9.97833 8.45191 10.2015 8.64915 10.4307C9.11366 10.9707 9.51028 11.5634 9.89623 12.1634C9.95259 12.251 9.99934 12.3465 10.0414 12.4426C10.1597 12.713 10.1052 12.9543 9.9116 13.1672C9.74574 13.3494 9.54038 13.4731 9.32008 13.569C8.69206 13.8425 8.03671 13.9901 7.51414 13.9997Z" fill="#00589F"/>
<path d="M11.0006 7.97746C10.9719 8.26388 10.9372 8.65561 10.8917 9.04581C10.8673 9.25537 10.6776 9.40492 10.4865 9.38346C10.2686 9.35916 10.1243 9.17851 10.1431 8.95012C10.1717 8.60174 10.2263 8.25358 10.228 7.90499C10.2406 5.25918 8.67866 2.91862 6.27373 1.96655C6.10402 1.89932 5.97936 1.80122 5.9642 1.60525C5.94179 1.31139 6.21012 1.11322 6.48955 1.21833C7.11074 1.45197 7.68774 1.7721 8.21351 2.18332C9.6683 3.32109 10.554 4.81906 10.8885 6.66168C10.9184 6.82634 10.9406 6.9932 10.9542 7.15983C10.9737 7.39588 10.9818 7.63303 11.0006 7.97746Z" fill="#00589F"/>
<path d="M9.50651 7.86099C9.48474 8.12222 9.46766 8.37666 9.44141 8.63045C9.41835 8.8538 9.23541 9.00467 9.02898 8.98146C8.81488 8.95737 8.67612 8.78416 8.69043 8.556C8.70494 8.32324 8.73419 8.09047 8.73461 7.85771C8.73782 5.94479 7.60281 4.19436 5.88375 3.45687C5.73048 3.39118 5.60475 3.30622 5.57892 3.12579C5.53452 2.81638 5.81224 2.59216 6.10063 2.70821C6.61744 2.91623 7.09006 3.2044 7.5155 3.56964C8.57878 4.48274 9.21705 5.64634 9.43479 7.04949C9.47641 7.31861 9.48367 7.59363 9.50651 7.86099Z" fill="#00589F"/>
<path d="M7.98674 7.86404C7.98674 7.98075 7.99486 8.09811 7.98504 8.21395C7.96518 8.45 7.78758 8.59977 7.56365 8.57919C7.35979 8.56058 7.211 8.3681 7.22979 8.14716C7.34421 6.79941 6.6404 5.53311 5.44242 4.93139C5.25414 4.83679 5.16299 4.69381 5.1822 4.52279C5.21316 4.24689 5.47722 4.09383 5.72932 4.21185C6.13747 4.40301 6.50229 4.66205 6.81886 4.98744C7.5914 5.78186 7.98269 6.74226 7.98674 7.86404Z" fill="#00589F"/>
</g>
<defs>
<clipPath id="clip0">
<rect width="11" height="14" fill="white"/>
</clipPath>
</defs>
</svg>
