<svg width="58" height="58" viewBox="0 0 58 58" fill="none" xmlns="http://www.w3.org/2000/svg">
<path d="M9.18152 51.6522H7.26831V53.5654H9.18152V51.6522Z" fill="white"/>
<path d="M5.35511 51.6522H3.44189V53.5654H5.35511V51.6522Z" fill="white"/>
<path d="M13.0079 51.6522H11.0947V53.5654H13.0079V51.6522Z" fill="white"/>
<path d="M16.8344 51.6522H14.9211V53.5654H16.8344V51.6522Z" fill="white"/>
<path d="M20.6608 51.6522H18.7476V53.5654H20.6608V51.6522Z" fill="white"/>
<path d="M24.4872 51.6522H22.574V53.5654H24.4872V51.6522Z" fill="white"/>
<path d="M28.3136 51.6522H26.4004V53.5654H28.3136V51.6522Z" fill="white"/>
<path d="M32.14 51.6522H30.2268V53.5654H32.14V51.6522Z" fill="white"/>
<path d="M35.9664 51.6522H34.0532V53.5654H35.9664V51.6522Z" fill="white"/>
<path d="M39.7929 51.6522H37.8796V53.5654H39.7929V51.6522Z" fill="white"/>
<path d="M43.6193 51.6522H41.7061V53.5654H43.6193V51.6522Z" fill="white"/>
<path d="M47.4457 51.6522H45.5325V53.5654H47.4457V51.6522Z" fill="white"/>
<path d="M51.2721 51.6522H49.3589V53.5654H51.2721V51.6522Z" fill="white"/>
<path d="M55.0985 51.6522H53.1853V53.5654H55.0985V51.6522Z" fill="white"/>
<path d="M55.0986 15.3018H50.3156V10.5188C50.3156 8.93383 49.0307 7.64898 47.4457 7.64898H36.2534C34.1403 1.67892 27.5875 -1.44763 21.6176 0.665516C18.3552 1.82026 15.7889 4.3866 14.6341 7.64898H5.35505C2.71614 7.64635 0.574652 9.78353 0.572021 12.4225C0.572021 12.4257 0.572021 12.4288 0.572021 12.432V52.6095C0.57513 55.2497 2.71482 57.3894 5.35505 57.3925H55.0986C56.6836 57.3925 57.9684 56.1077 57.9684 54.5227V18.1717C57.9684 16.5867 56.6836 15.3018 55.0986 15.3018ZM36.5797 14.2496C36.6017 14.1539 36.6189 14.064 36.639 13.9712C36.7078 13.6603 36.7643 13.3456 36.8073 13.0289C36.8226 12.9161 36.8389 12.8032 36.8513 12.6903C36.8963 12.2869 36.9203 11.8814 36.9231 11.4754C36.9231 11.1731 36.9087 10.8747 36.8867 10.5781C36.8791 10.4825 36.8666 10.3868 36.8571 10.2969C36.837 10.0941 36.8131 9.89318 36.7815 9.69421C36.7748 9.6502 36.7729 9.60524 36.7652 9.5622H47.4457C47.974 9.5622 48.4024 9.99052 48.4024 10.5188V15.3018H36.2688C36.3902 14.9565 36.4907 14.6045 36.5797 14.2496ZM16.2432 8.86483C17.4162 4.75429 21.1692 1.91712 25.4438 1.90934C29.7221 1.91819 33.477 4.76015 34.6473 8.87535C34.892 9.72028 35.014 10.5958 35.0099 11.4754C35.0089 11.8334 34.9882 12.1911 34.9477 12.5468C34.9352 12.6616 34.9123 12.7735 34.896 12.8864C34.8606 13.1236 34.8233 13.3647 34.7707 13.5924C34.7411 13.7234 34.7028 13.8526 34.6674 13.9827C34.611 14.1941 34.5488 14.4036 34.4761 14.6102C34.4292 14.7432 34.3804 14.8742 34.3259 15.0053C34.2867 15.1057 34.2388 15.2033 34.1958 15.3018H29.1334C29.6905 13.2928 28.5134 11.2127 26.5046 10.6557C26.1592 10.5599 25.802 10.5139 25.4438 10.5188C24.3871 10.5188 23.5306 9.66228 23.5306 8.60559C23.5306 7.5489 24.3871 6.69238 25.4438 6.69238C26.5005 6.69238 27.357 7.5489 27.357 8.60559C27.357 9.13388 27.7853 9.5622 28.3136 9.5622C28.8419 9.5622 29.2702 9.13388 29.2702 8.60559C29.2636 6.86612 28.0846 5.3499 26.4004 4.915V3.82256C26.4004 3.29427 25.9721 2.86595 25.4438 2.86595C24.9155 2.86595 24.4872 3.29427 24.4872 3.82256V4.915C22.4447 5.44066 21.2151 7.52259 21.7408 9.56507C22.1755 11.2542 23.6995 12.4342 25.4438 12.432C26.5005 12.432 27.357 13.2885 27.357 14.3452C27.3562 14.6817 27.2658 15.012 27.0949 15.3018H23.7927C23.6218 15.012 23.5314 14.6817 23.5306 14.3452C23.5306 13.8169 23.1023 13.3886 22.574 13.3886C22.0457 13.3886 21.6174 13.8169 21.6174 14.3452C21.6223 14.6686 21.6682 14.9901 21.7542 15.3018H16.6908C16.6478 15.2062 16.5952 15.1105 16.5607 15.0053C16.5081 14.8742 16.4574 14.7432 16.4106 14.6102C16.3388 14.4036 16.2766 14.1941 16.2192 13.9827C16.1838 13.8526 16.1456 13.7234 16.1159 13.5924C16.0633 13.3599 16.026 13.1236 15.9906 12.8864C15.9743 12.7735 15.9514 12.6616 15.9389 12.5468C15.8988 12.1911 15.8783 11.8334 15.8777 11.4754C15.8738 10.5922 15.9968 9.71298 16.2432 8.86483ZM3.3194 10.404V10.4059C3.85976 9.86664 4.59168 9.56327 5.35505 9.5622H14.1224C14.1147 9.6062 14.1128 9.65786 14.1051 9.69708C14.0745 9.89318 14.0516 10.0922 14.0315 10.2911C14.021 10.3868 14.0085 10.4825 14.0009 10.5781C13.9789 10.8747 13.9645 11.1731 13.9645 11.4745C13.9674 11.8801 13.9913 12.2853 14.0363 12.6884C14.0487 12.8022 14.064 12.9132 14.0803 13.0261C14.1233 13.3437 14.1759 13.6574 14.2486 13.9702C14.2687 14.0659 14.2859 14.1558 14.3079 14.2477C14.3969 14.6035 14.4993 14.9555 14.6188 15.2999H5.35505C3.77008 15.3017 2.4838 14.0183 2.48201 12.4333C2.48117 11.6726 2.78238 10.9427 3.3194 10.404ZM56.0552 39.217H43.6193C42.0343 39.217 40.7495 37.9322 40.7495 36.3472V32.5208C40.7495 30.9358 42.0343 29.6509 43.6193 29.6509H56.0552V39.217ZM56.0552 27.7377H43.6193C40.9791 27.7408 38.8394 29.8805 38.8363 32.5208V36.3472C38.8394 38.9874 40.9791 41.1271 43.6193 41.1302H56.0552V54.5227C56.0552 55.051 55.6269 55.4793 55.0986 55.4793H5.35505C3.77008 55.4793 2.48523 54.1945 2.48523 52.6095V16.2336C3.30828 16.8666 4.31666 17.2116 5.35505 17.2151H55.0986C55.6269 17.2151 56.0552 17.6434 56.0552 18.1717V27.7377Z" fill="white"/>
<path d="M9.18152 19.1276H7.26831V21.0408H9.18152V19.1276Z" fill="white"/>
<path d="M5.35511 19.1276H3.44189V21.0408H5.35511V19.1276Z" fill="white"/>
<path d="M13.0079 19.1276H11.0947V21.0408H13.0079V19.1276Z" fill="white"/>
<path d="M16.8344 19.1276H14.9211V21.0408H16.8344V19.1276Z" fill="white"/>
<path d="M20.6608 19.1276H18.7476V21.0408H20.6608V19.1276Z" fill="white"/>
<path d="M24.4872 19.1276H22.574V21.0408H24.4872V19.1276Z" fill="white"/>
<path d="M28.3136 19.1276H26.4004V21.0408H28.3136V19.1276Z" fill="white"/>
<path d="M32.14 19.1276H30.2268V21.0408H32.14V19.1276Z" fill="white"/>
<path d="M35.9664 19.1276H34.0532V21.0408H35.9664V19.1276Z" fill="white"/>
<path d="M39.7929 19.1276H37.8796V21.0408H39.7929V19.1276Z" fill="white"/>
<path d="M43.6193 19.1276H41.7061V21.0408H43.6193V19.1276Z" fill="white"/>
<path d="M47.4457 19.1276H45.5325V21.0408H47.4457V19.1276Z" fill="white"/>
<path d="M51.2721 19.1276H49.3589V21.0408H51.2721V19.1276Z" fill="white"/>
<path d="M55.0985 19.1276H53.1853V21.0408H55.0985V19.1276Z" fill="white"/>
<path d="M42.6626 34.4333C42.6626 36.0182 43.9474 37.3031 45.5324 37.3031C47.1174 37.3031 48.4022 36.0182 48.4022 34.4333C48.4022 32.8483 47.1174 31.5635 45.5324 31.5635C43.9474 31.5635 42.6626 32.8483 42.6626 34.4333ZM45.5324 33.4767C46.0607 33.4767 46.489 33.905 46.489 34.4333C46.489 34.9616 46.0607 35.3899 45.5324 35.3899C45.0041 35.3899 44.5758 34.9616 44.5758 34.4333C44.5758 33.905 45.0041 33.4767 45.5324 33.4767Z" fill="white"/>
</svg>
