<svg width="61" height="63" viewBox="0 0 61 63" fill="none" xmlns="http://www.w3.org/2000/svg">
<path d="M6.77234 52.8483H4.77612V54.9207H6.77234V52.8483Z" fill="white"/>
<path d="M10.7648 52.8483H8.76855V54.9207H10.7648V52.8483Z" fill="white"/>
<path d="M14.7572 52.8483H12.761V54.9207H14.7572V52.8483Z" fill="white"/>
<path d="M18.7497 52.8483H16.7534V54.9207H18.7497V52.8483Z" fill="white"/>
<path d="M22.7423 52.8483H20.7461V54.9207H22.7423V52.8483Z" fill="white"/>
<path d="M26.7345 52.8483H24.7383V54.9207H26.7345V52.8483Z" fill="white"/>
<path d="M30.7272 52.8483H28.731V54.9207H30.7272V52.8483Z" fill="white"/>
<path d="M34.7197 52.8483H32.7234V54.9207H34.7197V52.8483Z" fill="white"/>
<path d="M60.6706 61.0346L58.6744 40.3098C58.623 39.7783 58.1908 39.3744 57.6763 39.3771H56.6781V1.03624C56.6781 0.463977 56.2312 0 55.68 0H1.78181C1.2306 0 0.783691 0.463977 0.783691 1.03624V56.9932C0.783691 57.5655 1.2306 58.0295 1.78181 58.0295H37.0153L36.7258 61.0346C36.6707 61.604 37.0707 62.112 37.6191 62.1693C37.6507 62.1725 37.6823 62.1743 37.714 62.1744H59.6725C60.2237 62.1773 60.6728 61.7156 60.6756 61.1434C60.6757 61.1071 60.6741 61.0707 60.6706 61.0346ZM2.77992 2.07248H54.6819V6.21744H2.77992V2.07248ZM37.2099 55.957H2.77992V8.28992H54.6819V39.3771H53.6838C53.6838 36.5157 51.4494 34.1959 48.6932 34.1959C45.937 34.1959 43.7026 36.5157 43.7026 39.3771H39.7102C39.1975 39.3771 38.7683 39.7802 38.7171 40.3098L37.2099 55.957ZM51.6876 39.3771H45.6989C45.6989 37.6602 47.0395 36.2684 48.6932 36.2684C50.347 36.2684 51.6876 37.6602 51.6876 39.3771ZM38.8119 60.1019L40.6085 41.4496H43.7026V43.5221C43.7026 44.0944 44.1495 44.5583 44.7008 44.5583C45.252 44.5583 45.6989 44.0944 45.6989 43.5221V41.4496H51.6876V43.5221C51.6876 44.0944 52.1345 44.5583 52.6857 44.5583C53.2369 44.5583 53.6838 44.0944 53.6838 43.5221V41.4496H56.7779L58.5746 60.1019H38.8119Z" fill="white"/>
<path d="M16.9102 16.1136L15.4988 14.6483L10.5581 19.7777L8.44112 17.5799L7.02979 19.0451L10.5581 22.7083L16.9102 16.1136Z" fill="white"/>
<path d="M16.9102 24.4035L15.4988 22.9382L10.5581 28.0677L8.44112 25.8698L7.02979 27.335L10.5581 30.9982L16.9102 24.4035Z" fill="white"/>
<path d="M16.9102 32.6933L15.4988 31.228L10.5581 36.3575L8.44112 34.1596L7.02979 35.6249L10.5581 39.2881L16.9102 32.6933Z" fill="white"/>
<path d="M41.7064 18.6523H17.7517V20.7249H41.7064V18.6523Z" fill="white"/>
<path d="M41.7064 26.9423H17.7517V29.0148H41.7064V26.9423Z" fill="white"/>
<path d="M41.7064 35.2323H17.7517V37.3047H41.7064V35.2323Z" fill="white"/>
</svg>
