<svg width="60" height="61" viewBox="0 0 60 61" fill="none" xmlns="http://www.w3.org/2000/svg">
<path d="M59.1661 5.42006L54.2193 0.284373C53.8318 -0.104272 53.2143 -0.0931317 52.84 0.309186C52.4749 0.701628 52.4749 1.32397 52.84 1.71641L56.1215 5.12332H30.1871C16.7246 5.13889 5.8148 16.4654 5.7998 30.4422C5.7998 31.0015 6.23658 31.455 6.7753 31.455C7.31401 31.455 7.75079 31.0015 7.75079 30.4422C7.76481 17.5836 17.8017 7.16339 30.1871 7.14883H56.1215L52.84 10.5557C52.4525 10.9444 52.4417 11.5855 52.8161 11.9878C53.1904 12.3901 53.8079 12.4012 54.1954 12.0126C54.2036 12.0045 54.2115 11.9961 54.2193 11.9878L59.1661 6.85209C59.5469 6.45661 59.5469 5.81554 59.1661 5.42006Z" fill="white"/>
<path d="M50.6723 30.4422C50.6723 18.6963 41.5008 9.17432 30.187 9.17432C18.8732 9.17432 9.70166 18.6963 9.70166 30.4422C9.70166 42.1881 18.8732 51.7101 30.187 51.7101C41.4954 51.6967 50.6594 42.1826 50.6723 30.4422ZM11.6526 30.4422C11.6526 19.815 19.9508 11.1998 30.187 11.1998C40.4232 11.1998 48.7213 19.815 48.7213 30.4422C48.7213 41.0694 40.4232 49.6846 30.187 49.6846C19.9554 49.6728 11.6639 41.0646 11.6526 30.4422Z" fill="white"/>
<path d="M31.1624 46.6462C31.1624 46.0869 30.7256 45.6334 30.1869 45.6334C22.1057 45.6334 15.5545 38.8321 15.5545 30.4423C15.5545 22.0524 22.1057 15.2511 30.1869 15.2511C38.2681 15.2511 44.8193 22.0524 44.8193 30.4423C44.8193 31.0016 45.256 31.455 45.7947 31.455C46.3335 31.455 46.7702 31.0016 46.7702 30.4423C46.7702 20.9337 39.3456 13.2256 30.1869 13.2256C21.0281 13.2256 13.6035 20.9337 13.6035 30.4423C13.6035 39.9508 21.0281 47.6589 30.1869 47.6589C30.7256 47.6589 31.1624 47.2055 31.1624 46.6462Z" fill="white"/>
<path d="M53.5987 29.4294C53.06 29.4294 52.6232 29.8829 52.6232 30.4422C52.6092 43.3008 42.5724 53.721 30.1869 53.7356H4.25248L7.53404 50.3287C7.90838 49.9264 7.89765 49.2853 7.51014 48.8966C7.13213 48.5175 6.53269 48.5175 6.15469 48.8966L1.20797 54.0323C0.827161 54.4278 0.827161 55.0689 1.20797 55.4644L6.15469 60.6C6.5422 60.9887 7.15969 60.9775 7.53404 60.5752C7.89924 60.1828 7.89924 59.5604 7.53404 59.168L4.25248 55.7611H30.1869C43.6494 55.7455 54.5592 44.419 54.5742 30.4422C54.5742 29.8829 54.1374 29.4294 53.5987 29.4294Z" fill="white"/>
<path d="M34.9718 33.4855C34.5098 31.1237 32.5084 29.427 30.187 29.4295C28.5707 29.4295 27.2605 28.0692 27.2605 26.3912C27.2605 24.7132 28.5707 23.353 30.187 23.353C31.8033 23.353 33.1135 24.7132 33.1135 26.3912C33.1135 26.9505 33.5503 27.404 34.089 27.404C34.6277 27.404 35.0645 26.9505 35.0645 26.3912C35.0615 23.9858 33.4318 21.9132 31.1625 21.4288V20.3147C31.1625 19.7555 30.7257 19.302 30.187 19.302C29.6483 19.302 29.2115 19.7555 29.2115 20.3147V21.4288C26.5716 21.9853 24.8662 24.6582 25.4022 27.3989C25.8642 29.7607 27.8656 31.4574 30.187 31.4549C31.8033 31.4549 33.1135 32.8152 33.1135 34.4932C33.1135 36.1712 31.8033 37.5314 30.187 37.5314C28.5707 37.5314 27.2605 36.1712 27.2605 34.4932C27.2605 33.9339 26.8237 33.4804 26.285 33.4804C25.7463 33.4804 25.3095 33.9339 25.3095 34.4932C25.3125 36.8986 26.9421 38.9712 29.2115 39.4556V40.5697C29.2115 41.1289 29.6483 41.5824 30.187 41.5824C30.7257 41.5824 31.1625 41.1289 31.1625 40.5697V39.4556C33.8023 38.8991 35.5078 36.2262 34.9718 33.4855Z" fill="white"/>
<path d="M35.1691 45.8321L34.6638 43.8764C34.5408 43.3318 34.016 42.9938 33.4915 43.1214C32.9669 43.249 32.6413 43.7939 32.7642 44.3385C32.7689 44.3592 32.7742 44.3797 32.7801 44.4L33.2844 46.3567C33.3988 46.7994 33.7852 47.1072 34.2267 47.1072C34.3121 47.1071 34.397 47.0955 34.4794 47.0727C34.9998 46.9279 35.3086 46.3725 35.1691 45.8324C35.1691 45.8322 35.1691 45.8321 35.1691 45.8321Z" fill="white"/>
<path d="M38.8358 43.9685L37.8603 42.2144C37.5941 41.7281 36.9986 41.558 36.5302 41.8343C36.0619 42.1107 35.898 42.729 36.1642 43.2153C36.1664 43.2192 36.1686 43.2231 36.1708 43.227L37.1463 44.9812C37.4125 45.4674 38.008 45.6376 38.4764 45.3612C38.9447 45.0849 39.1086 44.4666 38.8424 43.9803C38.8402 43.9764 38.838 43.9724 38.8358 43.9685Z" fill="white"/>
<path d="M40.5331 39.7515C40.1456 39.3629 39.5281 39.374 39.1538 39.7763C38.7886 40.1687 38.7886 40.791 39.1538 41.1834L40.5331 42.6163C40.9143 43.012 41.5323 43.012 41.9134 42.6163C42.2946 42.2206 42.2946 41.5791 41.9134 41.1834L40.5331 39.7515Z" fill="white"/>
<path d="M44.2025 37.674C44.1987 37.6718 44.195 37.6695 44.1912 37.6672L42.5026 36.6545C42.0343 36.3782 41.4387 36.5483 41.1725 37.0345C40.9088 37.5162 41.0668 38.1283 41.5271 38.4085L43.2157 39.4211C43.6804 39.7041 44.2781 39.5423 44.5507 39.0599C44.8232 38.5775 44.6673 37.9569 44.2025 37.674Z" fill="white"/>
<path d="M45.515 33.6576L43.6313 33.1331C43.1109 32.9882 42.5758 33.3088 42.4363 33.8491C42.2968 34.3893 42.6056 34.9448 43.126 35.0897L45.0107 35.6132C45.093 35.6368 45.178 35.6487 45.2633 35.6487C45.8021 35.6484 46.2386 35.1947 46.2383 34.6354C46.2381 34.1771 45.9414 33.7761 45.515 33.6576Z" fill="white"/>
</svg>
