<svg width="34" height="35" viewBox="0 0 34 35" fill="none" xmlns="http://www.w3.org/2000/svg">
<path d="M18.1624 33.6462C18.1624 33.0869 17.7256 32.6334 17.1869 32.6334C9.10566 32.6334 2.5545 25.8321 2.5545 17.4423C2.5545 9.05242 9.10566 2.25108 17.1869 2.25108C25.2681 2.25108 31.8193 9.05242 31.8193 17.4423C31.8193 18.0016 32.256 18.455 32.7947 18.455C33.3335 18.455 33.7702 18.0016 33.7702 17.4423C33.7702 7.93372 26.3456 0.225586 17.1869 0.225586C8.0281 0.225586 0.603516 7.93372 0.603516 17.4423C0.603516 26.9508 8.0281 34.6589 17.1869 34.6589C17.7256 34.6589 18.1624 34.2055 18.1624 33.6462Z" fill="white"/>
</svg>
