<?xml version="1.0" encoding="utf-8"?>
<!-- Generator: Adobe Illustrator 25.0.1, SVG Export Plug-In . SVG Version: 6.00 Build 0)  -->
<svg version="1.1" id="Layer_1" xmlns="http://www.w3.org/2000/svg" xmlns:xlink="http://www.w3.org/1999/xlink" x="0px" y="0px"
	 viewBox="0 0 459.42 133.28" style="enable-background:new 0 0 459.42 133.28;" xml:space="preserve">
<style type="text/css">
	.st0{fill:#010202;}
	.st1{fill:#FFFFFF;}
</style>
<g>
	<g>
		<path class="st0" d="M165.78,43.97c0.96,0,2,0.01,3.1,0.03c1.11,0.02,2.2,0.08,3.29,0.19c1.09,0.11,2.1,0.26,3.04,0.47
			c0.94,0.21,1.75,0.52,2.41,0.94c1.46,0.88,2.71,2.09,3.73,3.64c1.02,1.55,1.54,3.45,1.54,5.71c0,2.38-0.58,4.44-1.72,6.18
			c-1.15,1.74-2.79,3.02-4.92,3.86v0.12c2.76,0.59,4.87,1.84,6.33,3.76c1.46,1.92,2.19,4.26,2.19,7.02c0,1.63-0.29,3.22-0.88,4.77
			c-0.59,1.55-1.45,2.92-2.6,4.11c-1.15,1.19-2.57,2.15-4.26,2.88c-1.69,0.73-3.65,1.1-5.86,1.1h-21.64V43.97H165.78z M167.41,63.23
			c3.39,0,5.82-0.6,7.31-1.79c1.48-1.19,2.23-2.98,2.23-5.36c0-1.59-0.25-2.84-0.75-3.76c-0.5-0.92-1.19-1.63-2.07-2.13
			c-0.88-0.5-1.89-0.83-3.04-0.97c-1.15-0.15-2.37-0.22-3.67-0.22H155.5v14.24H167.41z M170.42,83.74c2.63,0,4.69-0.71,6.18-2.13
			c1.48-1.42,2.23-3.39,2.23-5.9c0-1.46-0.27-2.68-0.82-3.64c-0.54-0.96-1.27-1.72-2.16-2.29c-0.9-0.56-1.93-0.96-3.1-1.19
			c-1.17-0.23-2.38-0.35-3.64-0.35H155.5v15.49H170.42z"/>
		<path class="st0" d="M211.25,43.97l17.5,44.78h-6.58l-4.89-13.48h-18.94l-5.02,13.48h-6.08l17.44-44.78H211.25z M215.39,70.25
			l-7.46-20.88h-0.13l-7.59,20.88H215.39z"/>
		<path class="st0" d="M239.1,43.97v39.76h23.71v5.02h-29.67V43.97H239.1z"/>
		<path class="st0" d="M286.76,43.97l17.5,44.78h-6.58l-4.89-13.48h-18.94l-5.02,13.48h-6.08l17.44-44.78H286.76z M290.9,70.25
			l-7.46-20.88h-0.12l-7.59,20.88H290.9z"/>
		<path class="st0" d="M314.92,43.97l23.58,36.31h0.13V43.97h5.64v44.78h-6.52l-23.39-35.94h-0.13v35.94h-5.64V43.97H314.92z"/>
		<path class="st0" d="M380.99,50.31c-2.28-1.59-4.99-2.38-8.12-2.38c-2.68,0-4.96,0.5-6.87,1.5c-1.9,1-3.47,2.35-4.7,4.04
			s-2.14,3.63-2.73,5.8s-0.88,4.43-0.88,6.77c0,2.55,0.29,4.96,0.88,7.24c0.59,2.28,1.5,4.26,2.73,5.96s2.81,3.04,4.74,4.05
			c1.92,1,4.22,1.5,6.9,1.5c1.96,0,3.71-0.32,5.24-0.97c1.53-0.65,2.84-1.55,3.95-2.7c1.11-1.15,1.98-2.52,2.6-4.11
			c0.63-1.59,1-3.3,1.13-5.14h5.96c-0.59,5.64-2.53,10.04-5.83,13.17s-7.82,4.7-13.55,4.7c-3.47,0-6.5-0.6-9.09-1.79
			s-4.75-2.83-6.46-4.92s-3-4.56-3.86-7.4c-0.86-2.84-1.29-5.9-1.29-9.16c0-3.26,0.46-6.32,1.38-9.19c0.92-2.86,2.27-5.36,4.04-7.5
			c1.78-2.13,3.99-3.81,6.65-5.05c2.65-1.23,5.7-1.85,9.12-1.85c2.34,0,4.56,0.31,6.65,0.94c2.09,0.63,3.95,1.55,5.58,2.76
			c1.63,1.21,2.99,2.73,4.08,4.55c1.09,1.82,1.8,3.92,2.13,6.3h-5.96C384.75,54.28,383.27,51.9,380.99,50.31z"/>
		<path class="st0" d="M430.13,43.97v5.02h-24.96v14.24h23.27v5.02h-23.27v15.49h25.15v5.02h-31.11V43.97H430.13z"/>
	</g>
	<g>
		<circle cx="76.39" cy="68.59" r="43.43"/>
		<path class="st1" d="M87.8,71.89c1.69,0.68,3.35,1.25,4.92,1.99c3.03,1.42,5.75,3.27,7.65,6.13c2.23,3.36,2.03,8.43-0.46,11.27
			c-1.63,1.86-3.84,2.65-6.17,3.15c-3.38,0.72-6.81,0.78-10.24,0.78c-5.79,0-11.58,0.03-17.37-0.05c-3.33-0.05-6.66-0.32-9.84-1.44
			c-3.97-1.4-6.25-4.2-6.69-8.38c-0.21-2,0.55-3.8,1.71-5.42c1.62-2.27,3.76-3.96,6.21-5.18c2.05-1.02,4.22-1.79,6.35-2.66
			c0.17-0.07,0.35-0.13,0.4-0.15c-1.71-0.44-3.54-0.79-5.28-1.38c-2.48-0.85-4.26-2.45-4.82-5.16c-0.49-2.41,0.32-4.44,1.79-6.27
			c2.08-2.57,4.83-4.18,7.82-5.45c0.71-0.3,1.45-0.55,2.22-0.83c-0.92-0.39-1.85-0.66-2.65-1.15c-0.84-0.52-1.7-1.13-2.31-1.89
			c-1.52-1.88-1.38-4.1,0.23-6.05c1.68-2.03,3.9-3.26,6.32-4.14c5.51-2,11.1-2.28,16.69-0.37c2.27,0.77,4.23,2.07,5.55,4.15
			c2.05,3.24,0.97,6.97-2.48,8.57c-0.55,0.26-1.14,0.44-1.71,0.65c-0.18,0.07-0.37,0.13-0.63,0.22c1.05,0.39,2.04,0.72,3,1.13
			c2.77,1.17,5.25,2.75,7.03,5.25c0.97,1.36,1.58,2.88,1.73,4.54c0.29,3.13-1.4,5.12-4.01,6.39c-1.44,0.7-3.03,1.09-4.55,1.61
			C88.09,71.8,87.96,71.84,87.8,71.89z M95.12,78c-2.03-1.47-4.18-2.51-6.46-3.28c-6.61-2.24-13.36-2.65-20.21-1.37
			c-4.27,0.8-8.32,2.18-11.92,4.69c-1.73,1.21-3.24,2.63-4.14,4.58c-0.77,1.67-0.64,3.3,0.19,4.94c3.38-1.67,6.98-2.23,10.62-2.5
			c4.52-0.34,9.05-0.51,13.58-0.78c3.28-0.2,6.53-0.61,9.7-1.5C89.7,81.88,92.67,80.48,95.12,78z M96.94,79.59
			c-1.01,0.79-1.93,1.6-2.94,2.29c-3.33,2.26-7.1,3.34-11.01,4.01c-4.97,0.85-10,0.86-15.01,1.21c-3.05,0.21-6.1,0.51-9.13,0.89
			c-1.71,0.21-3.37,0.72-5,1.56c1.03,1.1,2.28,1.68,3.61,2.11c2.66,0.85,5.43,1.12,8.19,1.14c7.28,0.07,14.57,0.07,21.85,0.01
			c2.59-0.02,5.18-0.3,7.67-1.16c1.62-0.57,3.01-1.43,3.79-3.05C100.38,85.63,99.5,81.71,96.94,79.59z M94.54,63.75
			c-0.24-0.72-0.41-1.41-0.71-2.04c-1.08-2.31-2.97-3.8-5.16-4.94c-2.99-1.56-6.21-2.31-9.54-2.72c-3.56-0.44-7.09-0.39-10.58,0.49
			c-3.46,0.87-6.68,2.22-9.42,4.58c-0.2,0.18-0.38,0.38-0.7,0.71c3.42-0.1,6.57,0.33,9.68,1.02c5.57,1.23,11.1,2.64,16.83,2.89
			C88.07,63.86,91.21,63.75,94.54,63.75z M94.04,66.41c-0.06-0.08-0.11-0.16-0.17-0.25c-0.27,0-0.54,0.01-0.81,0
			c-3.67-0.11-7.38,0.01-11.01-0.41c-4.09-0.47-8.14-1.38-12.19-2.21c-4.13-0.85-8.25-1.69-12.51-1.39
			c-0.52,0.04-0.74,0.21-0.87,0.67c-0.48,1.71,0.11,3.49,1.53,4.59c1.51,1.16,3.3,1.62,5.12,1.84c2.92,0.34,5.85,0.58,8.78,0.79
			c4.63,0.33,9.26,0.51,13.87-0.18c2.11-0.32,4.2-0.76,6.08-1.82C92.65,67.6,93.32,66.96,94.04,66.41z M88.28,48.01
			c-8.48-1.64-16.86-1.74-25.23,0.61c0.4,0.4,0.8,0.75,1.25,1c2.13,1.17,4.49,1.46,6.86,1.67c3.38,0.29,6.76,0.28,10.12-0.16
			c1.68-0.22,3.34-0.69,4.97-1.18C87.14,49.69,87.87,49.06,88.28,48.01z M62.44,46.3c8.65-2.32,17.24-2.24,26.01-0.62
			c-0.3-0.53-0.51-0.99-0.8-1.39c-1.23-1.68-3-2.56-4.92-3.15c-3.3-1.01-6.66-1.07-10.04-0.53c-2.98,0.47-5.79,1.44-8.24,3.27
			C63.63,44.5,62.88,45.2,62.44,46.3z"/>
		<path class="st1" d="M52.58,87.57l5.86-1.35h12.08l12.48-0.34l11.05-5.79l2.84-1.29l3.1,2.59l0.95,4.83l-1.29,4.05l-3.96,2.58
			l-6.64,1.3l-14.82-0.43l-13.1-0.26C61.12,93.46,50.84,91.94,52.58,87.57z"/>
		<polygon class="st1" points="55.69,61.23 55.35,63.79 56.31,67.52 61.55,70.34 66.64,71.14 78.01,71.14 87.4,71.14 93.35,68.59 
			95.12,67.09 94.54,65.03 85.85,64.94 75.67,63.79 63.88,61.75 		"/>
		<path class="st1" d="M61.73,48.22l2.59,2.5l5.26,1.81h10.25l5.86-1.04l2.77-1.11l1.11-2.15l-0.52-1.41l-13.86-1.09
			C75.18,45.72,62.41,46.64,61.73,48.22z"/>
	</g>
</g>
</svg>
